<svg width="21" height="24" viewBox="0 0 21 24" fill="none" xmlns="http://www.w3.org/2000/svg">
<path fill-rule="evenodd" clip-rule="evenodd" d="M13.8851 3.83144C14.76 2.81746 15.3497 1.40518 15.1883 0C13.9275 0.048 12.4022 0.805376 11.4982 1.81816C10.6864 2.71695 9.9778 4.15308 10.1683 5.53066C11.5747 5.63505 13.0102 4.84662 13.8851 3.83144ZM17.0388 12.75C17.074 16.3824 20.3636 17.5906 20.4 17.6062C20.3733 17.6914 19.8746 19.3279 18.6672 21.0199C17.6224 22.4815 16.5388 23.9372 14.8315 23.9684C13.1546 23.9984 12.6146 23.0156 10.6962 23.0156C8.77893 23.0156 8.17949 23.937 6.59232 23.9982C4.94447 24.057 3.68857 22.4169 2.63652 20.9602C0.483882 17.9806 -1.16032 12.5401 1.04813 8.86816C2.14508 7.04539 4.10477 5.88935 6.23314 5.86055C7.85065 5.83055 9.37837 6.90352 10.3673 6.90352C11.3563 6.90352 13.2128 5.61352 15.164 5.80312C15.9807 5.83552 18.2741 6.11862 19.746 8.18379C19.627 8.25459 17.0097 9.71405 17.0388 12.75Z" fill="black"/>
</svg>
