<svg width="32" height="32" viewBox="0 0 32 32" fill="none" xmlns="http://www.w3.org/2000/svg">
<rect width="32" height="32" rx="10" fill="#FFF0E6"/>
<path fill-rule="evenodd" clip-rule="evenodd" d="M14.1669 25H18.8331C22.1101 25 23.7492 25 24.9262 24.2242C25.4343 23.8897 25.8717 23.4578 26.2135 22.9533C27 21.7922 27 20.174 27 16.9398C27 13.7056 27 12.0874 26.2135 10.9263C25.8717 10.4218 25.4343 9.98989 24.9262 9.65543C24.1702 9.15615 23.2231 8.97776 21.7731 8.91443C21.0811 8.91443 20.4858 8.39721 20.3503 7.72693C20.2468 7.23596 19.9779 6.79597 19.5889 6.48133C19.2 6.16668 18.7149 5.99668 18.2157 6.00005H14.7843C13.7469 6.00005 12.8533 6.7231 12.6497 7.72693C12.5142 8.39721 11.9188 8.91443 11.2269 8.91443C9.7779 8.97776 8.8308 9.15721 8.07375 9.65543C7.56611 9.99 7.12904 10.4219 6.7875 10.9263C6 12.0874 6 13.7045 6 16.9398C6 20.1751 6 21.7911 6.78645 22.9533C7.12665 23.4557 7.56345 23.8874 8.07375 24.2242C9.2508 25 10.8898 25 14.1669 25ZM16.5 12.6215C14.0839 12.6215 12.1247 14.5542 12.1247 16.9387C12.1247 19.3232 14.085 21.2591 16.5 21.2591C18.915 21.2591 20.8753 19.3253 20.8753 16.9409C20.8753 14.5564 18.915 12.6215 16.5 12.6215ZM16.5 14.3484C15.051 14.3484 13.875 15.5085 13.875 16.9398C13.875 18.3701 15.051 19.5301 16.5 19.5301C17.949 19.5301 19.125 18.3701 19.125 16.9398C19.125 15.5095 17.949 14.3484 16.5 14.3484ZM21.4581 13.485C21.4581 13.0079 21.8497 12.6215 22.3338 12.6215H23.4993C23.9823 12.6215 24.375 13.0079 24.375 13.485C24.3728 13.716 24.2794 13.9368 24.1154 14.0987C23.9514 14.2606 23.7302 14.3504 23.5003 14.3484H22.3338C22.2199 14.3495 22.1069 14.3281 22.0013 14.2853C21.8956 14.2425 21.7994 14.1792 21.7181 14.099C21.6367 14.0189 21.5719 13.9234 21.5273 13.818C21.4827 13.7126 21.4592 13.5995 21.4581 13.485Z" fill="#E0712D"/>
</svg>
