<svg width="23" height="24" viewBox="0 0 23 24" fill="none" xmlns="http://www.w3.org/2000/svg">
<path fill-rule="evenodd" clip-rule="evenodd" d="M4.80682 11.7335C4.80682 10.9714 4.9334 10.2407 5.15932 9.55538L1.20491 6.53564C0.434216 8.10044 0 9.86365 0 11.7335C0 13.6018 0.433682 15.3639 1.20331 16.9276L5.15558 13.902C4.9318 13.2199 4.80682 12.4919 4.80682 11.7335Z" fill="#FBBC05"/>
<path fill-rule="evenodd" clip-rule="evenodd" d="M11.7502 4.8C13.4059 4.8 14.9013 5.38667 16.0763 6.34667L19.4945 2.93333C17.4115 1.12 14.7411 0 11.7502 0C7.10679 0 3.11606 2.65547 1.20508 6.53547L5.15949 9.5552C6.07065 6.78933 8.66793 4.8 11.7502 4.8Z" fill="#EB4335"/>
<path fill-rule="evenodd" clip-rule="evenodd" d="M11.7502 18.6668C8.66793 18.6668 6.07065 16.6775 5.15949 13.9116L1.20508 16.9308C3.11606 20.8114 7.10678 23.4668 11.7502 23.4668C14.6161 23.4668 17.3523 22.4492 19.4058 20.5426L15.6522 17.6407C14.5931 18.3079 13.2595 18.6668 11.7502 18.6668Z" fill="#34A853"/>
<path fill-rule="evenodd" clip-rule="evenodd" d="M22.9659 11.7334C22.9659 11.0401 22.8591 10.2934 22.6989 9.6001H11.75V14.1334H18.0523C17.7372 15.679 16.8794 16.8673 15.6521 17.6406L19.4057 20.5425C21.5629 18.5404 22.9659 15.558 22.9659 11.7334Z" fill="#4285F4"/>
</svg>
