<svg width="182" height="52" viewBox="0 0 182 52" fill="none" xmlns="http://www.w3.org/2000/svg">
<path d="M14.8158 0.499699C14.5493 0.77724 14.2606 1.11029 14.1607 1.26571C14.0608 1.41004 13.9386 1.55436 13.8942 1.58766C13.7498 1.68758 12.7393 3.40833 12.4173 4.08554C11.5401 5.95062 10.7628 9.45874 11.1625 9.78069C11.2402 9.8473 11.751 9.95832 12.2952 10.0249C13.3723 10.1581 14.5938 10.4024 15.0157 10.5578C15.1712 10.6133 15.3489 10.6799 15.4044 10.691C15.8486 10.802 17.2144 11.3682 17.8695 11.7124C18.7801 12.2009 20.0793 12.9891 20.257 13.1667C20.3347 13.2444 20.5235 13.3887 20.6789 13.4997L20.9454 13.6885L21.1453 12.4895C21.3452 11.3349 21.856 9.48095 22.1891 8.69273C22.6777 7.57146 24.0102 5.40663 24.5877 4.80714C24.732 4.65172 24.9097 4.38528 24.9874 4.21876C25.1207 3.91901 25.0985 3.87461 24.7098 3.50825C24.4766 3.29732 24.0658 2.98647 23.7882 2.80884C23.5105 2.63122 23.2329 2.44249 23.1663 2.39808C22.8332 2.14275 22.5334 1.97622 21.6006 1.53215C19.8017 0.666224 18.0805 0.188852 16.3482 0.0667334L15.2822 0.000123978L14.8158 0.499699Z" fill="#E0712D"/>
<path d="M34.616 0.199958C32.8615 0.466398 31.5401 0.910464 30.0299 1.72089C28.5419 2.52021 26.8984 3.71918 26.8984 4.00783C26.8984 4.07444 27.2649 4.59622 27.7091 5.1624C28.6862 6.42799 29.3192 7.47155 29.7856 8.63722C29.9743 9.12569 30.1853 9.62527 30.2297 9.74739C30.4185 10.1804 30.896 12.2675 30.9626 12.978C31.007 13.3665 31.0737 13.6885 31.107 13.6885C31.1514 13.6885 31.3402 13.5553 31.5401 13.3776C32.2285 12.7892 32.5394 12.5783 33.6832 11.9788C35.8152 10.8576 37.6252 10.2692 39.7795 9.99162L40.9454 9.8473L40.9121 9.02578C40.8566 7.23841 39.9238 4.37418 38.8245 2.60902C38.2915 1.76529 37.3698 0.577415 36.9812 0.222161C36.7147 0.000127792 35.9485 -0.010973 34.616 0.199958Z" fill="#E0712D"/>
<path d="M25.7885 5.06265C25.6997 5.14036 25.4443 5.4179 25.2222 5.69544C23.3567 8.049 22.3018 10.78 22.0575 13.9218C21.9797 14.8432 21.9464 14.7655 22.9902 15.909C23.2234 16.1532 23.8897 17.0858 24.1784 17.5631C24.245 17.663 24.4227 17.9406 24.5782 18.1848C24.8447 18.6178 25.6442 20.3829 25.8774 21.0712L25.9884 21.4043L26.1994 20.9047C26.3215 20.6272 26.588 20.0055 26.799 19.517C27.0988 18.7954 28.8311 16.02 29.1087 15.798C29.142 15.7647 29.3641 15.5204 29.6084 15.254L30.0415 14.7655L29.9749 13.7886C29.8749 12.4008 29.4752 10.6468 29.0199 9.52552C28.4092 8.02679 27.1655 5.97299 26.4326 5.24028C26.0661 4.88502 26.0217 4.87392 25.7885 5.06265Z" fill="#E0712D"/>
<path d="M8.18572 11.1573C5.52068 11.5681 3.55521 12.4451 0.945685 14.3768C0.0129199 15.0651 -0.0426018 15.2649 0.201694 17.0634C0.501511 19.2282 1.2455 21.2487 2.38925 23.025C3.06661 24.0908 3.82171 25.0122 4.02159 25.0122C4.17705 25.0122 5.02098 24.4349 5.63172 23.9131C6.087 23.5357 7.71934 22.6142 8.9075 22.0814C9.78474 21.6928 11.1728 21.3154 12.9384 21.0156C13.3492 20.9379 13.6824 20.8491 13.6824 20.8047C13.6824 20.7603 13.4714 20.4383 13.216 20.1053C11.7502 18.1958 10.773 16.0088 10.24 13.4665C10.1179 12.8892 10.0179 12.2009 10.0179 11.9344C10.0179 11.1795 9.87358 11.013 9.26284 11.0463C8.97413 11.0574 8.49664 11.1018 8.18572 11.1573Z" fill="#E0712D"/>
<path d="M11.0867 11.2686C11.0312 11.5017 11.2533 13.0449 11.5309 14.2883C11.9195 16.0756 13.2965 18.6512 14.6734 20.2054L15.2619 20.8715L16.3279 20.9492C16.9165 20.9937 17.616 21.0714 17.8825 21.1269C18.1491 21.1935 18.5377 21.2712 18.7487 21.3045C19.1818 21.3711 20.7808 21.9262 21.9356 22.4036C22.3576 22.5812 22.7129 22.6922 22.7574 22.6589C22.7907 22.6145 22.6685 22.2703 22.4908 21.8818C21.6691 20.0944 21.1139 18.0184 20.9584 16.0756L20.8807 15.1209L20.3255 14.6213C18.8819 13.3224 15.8838 11.7571 14.1959 11.424C14.0738 11.3907 13.7406 11.3241 13.4519 11.2575C13.1632 11.1909 12.5303 11.1021 12.0417 11.0688C11.1644 11.0022 11.1533 11.0022 11.0867 11.2686Z" fill="#E0712D"/>
<path d="M39.648 11.0685C39.6258 11.0907 39.3593 11.1462 39.0484 11.1795C36.7165 11.4904 33.6184 12.9336 31.7306 14.5988L31.1976 15.0762L30.9866 16.7193C30.7423 18.6954 30.3648 19.9943 29.3876 22.1924L29.1211 22.803L29.3654 22.7253C29.4986 22.692 29.7985 22.5587 30.0316 22.4366C30.4869 22.2035 31.9194 21.7039 32.8855 21.4264C33.8182 21.1488 34.5289 21.0378 35.6727 20.949C36.672 20.8713 36.7276 20.8491 37.1162 20.4716C38.049 19.5502 39.4148 17.3632 40.0033 15.8977C40.5253 14.5655 41.1027 11.6569 40.925 11.2017C40.8695 11.0685 40.714 11.0241 40.281 11.0241C39.9589 11.0241 39.6702 11.0463 39.648 11.0685Z" fill="#E0712D"/>
<path d="M42.0729 11.2907C42.0174 11.4572 41.9619 11.757 41.9619 11.9457C41.9619 12.301 41.7398 13.5555 41.5066 14.5435C41.3067 15.4094 40.8736 16.5529 40.4073 17.4743C39.8076 18.6733 39.7743 18.7177 38.9748 19.8279C38.5861 20.3608 38.2974 20.827 38.3307 20.8604C38.3641 20.8937 38.7305 20.9714 39.1414 21.0269C40.2074 21.1712 40.3406 21.2045 41.0513 21.4043C41.3955 21.5153 41.762 21.6153 41.8508 21.6375C41.9397 21.6597 42.1951 21.7374 42.406 21.8262C42.617 21.915 42.9724 22.0482 43.1833 22.1259C44.2716 22.5478 46.2148 23.7468 47.403 24.7348C47.6806 24.968 47.9249 25.0901 48.0026 25.0346C48.7022 24.6238 50.5566 21.6042 51.1118 19.9944C51.6337 18.4291 52.0668 15.9312 51.9114 15.3206C51.8447 15.0209 50.8231 14.1438 49.6461 13.3667C47.7916 12.1344 45.271 11.2463 43.0834 11.0687L42.1951 10.991L42.0729 11.2907Z" fill="#E0712D"/>
<path d="M22.2691 17.4855C22.3024 17.8962 22.469 18.6734 22.6134 19.2062C22.891 20.1832 23.9681 22.4812 24.4012 23.0141C24.5233 23.1695 24.7454 23.4804 24.8787 23.7024C25.0119 23.9355 25.1785 24.1243 25.234 24.1243C25.4561 24.1243 24.8676 21.4044 24.4456 20.5051C24.3234 20.2387 24.1125 19.7835 23.9903 19.506C23.8571 19.2284 23.5794 18.7622 23.3796 18.4624C23.1686 18.1627 23.002 17.8851 23.002 17.8518C23.002 17.8185 22.8244 17.5632 22.5912 17.2745L22.1914 16.7417L22.2691 17.4855Z" fill="#E0712D"/>
<path d="M29.1605 17.5965C28.2499 18.9065 27.2283 21.0269 27.0285 22.0705C26.9729 22.3147 26.9174 22.5922 26.8952 22.6811C26.7842 23.114 26.6842 24.1243 26.762 24.1243C26.8064 24.1243 27.195 23.5692 27.6392 22.892C28.4831 21.6042 29.0495 20.383 29.4159 19.0508C29.6491 18.2515 29.8268 16.9082 29.7157 16.9082C29.6824 16.9082 29.427 17.219 29.1605 17.5965Z" fill="#E0712D"/>
<path d="M36.9695 22.1817C36.7697 22.3371 36.5698 22.4925 36.5365 22.5481C36.4476 22.6591 35.2595 23.5472 34.6931 23.9136C34.4488 24.069 34.0491 24.3243 33.8048 24.4908C33.5605 24.6463 32.8387 24.9793 32.2058 25.2236C30.7178 25.8008 30.418 25.9341 30.418 26.0229C30.418 26.0673 30.6845 26.1672 31.0065 26.2338C32.6055 26.6224 35.426 28.2765 36.8918 29.7197C37.3138 30.1305 39.9677 29.8085 42.022 29.098C42.9326 28.7872 44.8758 27.7547 45.6864 27.1663C46.0529 26.8999 46.4637 26.5891 46.6081 26.4891C47.1189 26.1228 47.13 25.9341 46.6636 25.5011C45.32 24.2244 41.9887 22.5925 40.101 22.2927C39.8789 22.2594 39.468 22.1817 39.1904 22.1262C38.9128 22.0707 38.3909 22.0041 38.0244 21.9597C37.4248 21.9042 37.3138 21.9264 36.9695 22.1817Z" fill="#E0712D"/>
<path d="M13.0984 22.0483C13.0651 22.0816 12.843 22.1372 12.5987 22.1705C11.5993 22.3148 11.3328 22.3814 10.2113 22.7588C8.59005 23.3028 7.1687 24.0688 5.71403 25.1679C4.8812 25.7896 4.81458 26.0116 5.35869 26.489C5.8917 26.9664 7.37968 27.9322 8.27913 28.3763C10.0114 29.2422 12.5099 29.8972 14.0867 29.8972C14.8196 29.8972 14.8418 29.8861 15.4859 29.331C16.9738 28.0765 19.228 26.7999 20.8715 26.2781C21.2046 26.1782 21.5266 26.056 21.571 26.0116C21.6266 25.9672 21.3489 25.8229 20.9603 25.6897C20.5716 25.5454 20.0942 25.3677 19.8943 25.2789C19.6944 25.1901 19.4945 25.1235 19.439 25.1235C19.2835 25.1235 17.2959 24.0022 17.0516 23.7802C16.9294 23.6581 16.7851 23.5693 16.7406 23.5693C16.6851 23.5693 16.4408 23.3805 16.1743 23.1363C15.3082 22.3481 14.7863 22.0927 13.9312 22.0372C13.5093 22.015 13.1317 22.015 13.0984 22.0483Z" fill="#E0712D"/>
<path d="M16.8398 22.3034C17.506 22.9251 19.6159 24.1241 20.0267 24.1241C20.1156 24.1241 20.2266 24.1685 20.2932 24.224C20.482 24.4127 23.147 25.0122 23.78 25.0122C24.0576 25.0122 24.0465 25.0011 23.6689 24.6792C23.2026 24.2795 21.4925 23.3248 20.6708 23.0139C19.949 22.7475 18.0946 22.2923 17.2284 22.1813C16.6288 22.1036 16.6177 22.1036 16.8398 22.3034Z" fill="#E0712D"/>
<path d="M33.6462 22.404C32.3581 22.6371 31.9139 22.7926 30.537 23.4254C29.9595 23.6918 28.6936 24.4689 28.094 24.9352L27.8164 25.1572L28.5826 25.0795C30.4481 24.9019 32.0805 24.2913 33.9571 23.0479C35.2119 22.2153 35.1675 22.1154 33.6462 22.404Z" fill="#E0712D"/>
<path d="M22.4956 26.9219C21.9515 27.044 21.3518 27.2105 21.1742 27.2994C20.9965 27.3882 20.8077 27.4548 20.7633 27.4548C20.2747 27.4548 16.3549 29.775 16.8102 29.7861C17.0322 29.7861 18.5535 29.5308 19.0976 29.3865C19.8972 29.1866 21.3185 28.6316 21.8404 28.3207C22.0847 28.1764 22.4067 27.9877 22.5733 27.8989C23.5061 27.366 23.7504 27.2216 24.0502 26.9663L24.3833 26.6888L23.9391 26.6999C23.6948 26.6999 23.0508 26.7998 22.4956 26.9219Z" fill="#E0712D"/>
<path d="M27.6602 26.7224C27.6602 26.9555 30.5584 28.5875 31.7799 29.0427C32.9125 29.4756 34.9335 29.8642 35.0445 29.6755C35.1778 29.4645 32.9347 28.1323 31.4356 27.5217C30.2475 27.0333 27.6602 26.4893 27.6602 26.7224Z" fill="#E0712D"/>
<path d="M3.56449 27.2442C2.77609 28.2211 2.00989 29.3979 1.59903 30.2416C1.11043 31.2408 0.521904 32.9171 0.410861 33.5832C0.377548 33.8164 0.299817 34.216 0.244295 34.4714C0.188774 34.7378 0.111043 35.3373 0.066626 35.8147L0 36.6695L0.421965 37.1025C0.777304 37.4577 1.65455 38.1016 2.84271 38.8676C3.3313 39.1785 4.89701 39.889 5.68542 40.1554C6.92911 40.5662 7.95071 40.7882 8.97231 40.8548C10.0272 40.9325 9.90507 41.088 10.1161 39.3339C10.3159 37.7575 10.9378 35.6259 11.5152 34.5047C12.0482 33.4944 12.4369 32.8727 12.9699 32.1511C13.2919 31.707 13.5584 31.263 13.5584 31.1742C13.5584 30.9965 13.4696 30.9743 12.2814 30.7856C9.70519 30.3748 7.09567 29.187 4.77487 27.3441C4.46394 27.0999 4.13081 26.9 4.03088 26.9C3.91983 26.9 3.71995 27.0555 3.56449 27.2442Z" fill="#E0712D"/>
<path d="M47.4583 27.1445C47.2806 27.2778 47.114 27.4221 47.0807 27.4554C47.0474 27.4887 46.8253 27.6663 46.581 27.8439C44.4823 29.4204 41.8173 30.5194 39.3077 30.8414C38.9746 30.8858 38.6081 30.9746 38.4971 31.0301C38.3083 31.1189 38.3305 31.1744 38.6747 31.6518C39.4743 32.762 39.8629 33.3393 39.8629 33.3948C39.8629 33.4281 39.9851 33.6501 40.1294 33.8832C40.2849 34.1164 40.5292 34.6271 40.6957 35.0156C40.8512 35.4042 41.0289 35.826 41.0844 35.9482C41.3176 36.4255 41.7395 38.2795 41.8617 39.312C42.0616 40.9994 42.006 40.8884 42.6168 40.8884C45.2152 40.8884 49.4682 39.1121 51.4558 37.2026L52 36.6809L51.9222 35.7705C51.8001 34.2607 51.0894 31.4631 50.7341 31.0634C50.6785 31.0079 50.6341 30.8858 50.6341 30.7859C50.6341 30.686 50.3898 30.1864 50.0789 29.6757C49.7791 29.165 49.5237 28.7321 49.5237 28.7099C49.5237 28.6766 49.4571 28.5877 49.3904 28.51C49.3127 28.4212 49.0018 28.0327 48.702 27.633C48.4021 27.2222 48.0801 26.9003 47.9691 26.9003C47.8691 26.9003 47.6359 27.0113 47.4583 27.1445Z" fill="#E0712D"/>
<path d="M24.9079 28.1325C24.597 28.5432 24.0973 29.3425 23.6642 30.1197C22.9202 31.4408 22.1762 33.9275 22.2651 34.8046C22.2984 35.1598 22.3095 35.1487 22.9202 34.2273C23.6531 33.1282 24.1084 32.2512 24.5081 31.2076C24.8302 30.3195 25.2743 28.3545 25.2188 27.9992C25.1855 27.7661 25.1633 27.7661 24.9079 28.1325Z" fill="#E0712D"/>
<path d="M26.7531 28.1433C26.9641 29.3978 27.064 29.8197 27.3194 30.619C27.7858 32.0844 29.1183 34.4935 29.7291 35.0042C29.9067 35.1374 29.9179 35.1263 29.8623 34.882C29.829 34.7377 29.7513 34.2714 29.6847 33.8496C29.5181 32.8282 29.1294 31.6626 28.5853 30.5746C28.0856 29.5754 26.9308 27.7881 26.7864 27.7881C26.7309 27.7881 26.7198 27.9546 26.7531 28.1433Z" fill="#E0712D"/>
<path d="M21.8494 29.5093C20.3947 30.2087 18.2183 30.7971 16.5193 30.9525C15.2534 31.0747 15.209 31.0858 14.7648 31.5742C12.9104 33.6502 11.4557 36.8364 11.167 39.5008C11.0227 40.8663 11.0116 40.833 11.5446 40.8663C12.1775 40.9107 13.8654 40.6221 14.9647 40.2668C16.8858 39.6673 20.0172 37.8245 20.6945 36.8919C20.8278 36.7143 20.9277 36.3368 20.9611 35.8928C21.1276 33.7502 21.6384 31.7741 22.5268 29.9423C22.8044 29.365 22.8599 29.1097 22.7155 29.1319C22.66 29.1319 22.2825 29.3095 21.8494 29.5093Z" fill="#E0712D"/>
<path d="M29.1094 29.1647C29.1094 29.1869 29.3093 29.6532 29.5647 30.1972C29.8089 30.7301 30.0643 31.274 30.1088 31.3962C30.5085 32.3065 30.875 34.0383 31.0637 35.8923C31.1526 36.7916 31.1859 36.8693 31.9077 37.4799C34.0064 39.2561 37.3488 40.6549 39.9472 40.8548C40.8134 40.9214 40.8578 40.9103 40.9355 40.6771C41.0688 40.2442 40.669 38.0127 40.2026 36.625C39.8695 35.6481 39.1477 34.1716 38.6258 33.3945C37.8818 32.2954 36.9935 31.2185 36.7381 31.1297C36.6048 31.0742 36.0829 31.0076 35.5832 30.9632C34.606 30.8966 33.007 30.5746 32.1631 30.2971C31.1637 29.9529 29.8312 29.4201 29.6091 29.2757C29.4092 29.1314 29.1094 29.0648 29.1094 29.1647Z" fill="#E0712D"/>
<path d="M25.7929 31.0855C25.7152 31.3852 25.5042 31.907 25.3266 32.2511C25.16 32.5953 25.0156 32.9061 25.0156 32.9283C25.0156 32.9949 23.7719 35.0376 23.6831 35.1154C23.6498 35.1487 23.4166 35.4484 23.1612 35.7815C22.9058 36.1145 22.606 36.492 22.4838 36.6252C22.0619 37.0804 21.9841 37.3357 22.0619 38.1572C22.3506 41.2102 23.3833 43.8524 25.2044 46.1837C25.5486 46.6278 25.9151 46.9941 26.015 46.9941C26.3259 46.9941 27.4919 45.451 28.2692 43.9967C29.202 42.2648 29.846 40.0556 29.9682 38.1239L30.0348 37.1692L29.4574 36.5031C28.2026 35.0487 26.6258 32.3843 26.226 31.0299C26.1483 30.7746 26.0594 30.5637 26.0261 30.5637C25.9817 30.5637 25.8818 30.7968 25.7929 31.0855Z" fill="#E0712D"/>
<path d="M31.0483 38.3129C31.0149 38.3573 30.9594 38.6904 30.9261 39.0567C30.8262 39.9116 30.2487 42.1319 29.9711 42.7425C29.849 43.0089 29.7491 43.2421 29.7491 43.2754C29.7491 43.453 29.0495 44.7519 28.5276 45.5401C27.7392 46.7391 27.6392 46.8834 27.3061 47.2498C26.8841 47.7271 26.8397 47.9381 27.0951 48.26C27.3616 48.6042 29.1605 49.792 30.2487 50.3471C31.9255 51.2019 34.4795 51.8792 36.0563 51.8792H36.7781L37.3111 51.3019C37.6109 50.9799 37.8552 50.6802 37.8552 50.6358C37.8552 50.6025 37.9218 50.4914 37.9996 50.4137C38.2217 50.1806 38.788 49.3147 39.2211 48.5375C40.0095 47.0943 40.709 44.8407 40.8978 43.0533C40.9978 42.1097 40.9089 42.0209 39.6874 41.8877C38.3993 41.7433 37.6553 41.5879 36.6337 41.2549C35.8342 40.9995 33.6356 40.0226 33.5245 39.8783C33.4912 39.8338 33.2691 39.7117 33.0248 39.5785C32.7805 39.4564 32.2475 39.1011 31.8367 38.7903C31.4258 38.4905 31.0705 38.2685 31.0483 38.3129Z" fill="#E0712D"/>
<path d="M19.9186 38.946C18.4418 40.0561 16.1987 41.0997 14.3443 41.5438C13.4004 41.7658 13.145 41.8102 11.8125 41.9434C11.3794 41.9989 11.0907 42.0766 11.0463 42.1766C10.9463 42.4541 11.2573 44.3858 11.6237 45.6625C12.29 47.9716 13.4559 50.0365 14.9883 51.6352C15.2437 51.9016 15.2881 51.9127 16.3764 51.835C18.1197 51.7351 19.6855 51.3021 21.451 50.4584C23.0612 49.6924 25.1155 48.2825 25.1155 47.9494C25.1155 47.8717 24.8268 47.4277 24.4603 46.9725C22.6725 44.7077 21.5177 42.0655 21.1179 39.3012C21.0291 38.7684 20.918 38.3354 20.8514 38.3354C20.7848 38.3354 20.3628 38.6129 19.9186 38.946Z" fill="#E0712D"/>
<path d="M73.7614 14.1667H80.7273L86.6364 28.5758H86.9091L92.8182 14.1667H99.7841V37.4395H94.3068V23.144H94.1136L88.5227 37.2917H85.0227L79.4318 23.0645H79.2386V37.4395H73.7614V14.1667ZM111.452 37.769C109.626 37.769 108.05 37.4092 106.724 36.6895C105.406 35.9622 104.391 34.9281 103.679 33.5872C102.974 32.2387 102.622 30.6364 102.622 28.7804C102.622 26.9773 102.978 25.4016 103.69 24.0531C104.402 22.697 105.406 21.644 106.702 20.894C107.997 20.1364 109.524 19.7576 111.281 19.7576C112.524 19.7576 113.66 19.9508 114.69 20.3372C115.721 20.7235 116.611 21.2955 117.361 22.0531C118.111 22.8107 118.694 23.7463 119.111 24.8599C119.527 25.966 119.736 27.2349 119.736 28.6667V30.0531H104.565V26.8258H114.565C114.558 26.2349 114.418 25.7084 114.145 25.2463C113.872 24.7841 113.497 24.4243 113.02 24.1667C112.55 23.9016 112.009 23.769 111.395 23.769C110.774 23.769 110.217 23.9091 109.724 24.1895C109.232 24.4622 108.842 24.8372 108.554 25.3145C108.266 25.7841 108.115 26.3182 108.099 26.9167V30.2008C108.099 30.9129 108.24 31.5379 108.52 32.0758C108.8 32.6061 109.198 33.019 109.713 33.3145C110.228 33.6099 110.842 33.7576 111.554 33.7576C112.046 33.7576 112.493 33.6895 112.895 33.5531C113.296 33.4167 113.641 33.216 113.929 32.9508C114.217 32.6857 114.433 32.3599 114.577 31.9735L119.679 32.1213C119.467 33.2652 119.001 34.2614 118.281 35.1099C117.569 35.9508 116.634 36.6061 115.474 37.0758C114.315 37.5379 112.974 37.769 111.452 37.769ZM128.949 37.6895C127.661 37.6895 126.491 37.3561 125.438 36.6895C124.384 36.0228 123.544 35.0228 122.915 33.6895C122.286 32.3561 121.972 30.7008 121.972 28.7235C121.972 26.6705 122.297 24.9811 122.949 23.6554C123.6 22.3296 124.453 21.3485 125.506 20.7122C126.566 20.0758 127.706 19.7576 128.926 19.7576C129.843 19.7576 130.627 19.9167 131.278 20.2349C131.93 20.5455 132.468 20.947 132.892 21.4395C133.316 21.9319 133.638 22.4432 133.858 22.9735H133.972V14.1667H139.528V37.4395H134.028V34.6099H133.858C133.623 35.1478 133.29 35.6516 132.858 36.1213C132.426 36.591 131.884 36.9698 131.233 37.2576C130.589 37.5455 129.828 37.6895 128.949 37.6895ZM130.881 33.3599C131.555 33.3599 132.131 33.1705 132.608 32.7917C133.085 32.4054 133.453 31.8637 133.71 31.1667C133.968 30.4698 134.097 29.6516 134.097 28.7122C134.097 27.7576 133.968 26.9357 133.71 26.2463C133.46 25.5569 133.093 25.0266 132.608 24.6554C132.131 24.2841 131.555 24.0985 130.881 24.0985C130.191 24.0985 129.608 24.2879 129.131 24.6667C128.653 25.0455 128.29 25.5796 128.04 26.269C127.797 26.9584 127.676 27.7728 127.676 28.7122C127.676 29.6516 127.801 30.4698 128.051 31.1667C128.301 31.8637 128.661 32.4054 129.131 32.7917C129.608 33.1705 130.191 33.3599 130.881 33.3599ZM154.952 37.4395H148.906L156.759 14.1667H164.247L172.099 37.4395H166.054L160.588 20.0304H160.406L154.952 37.4395ZM154.145 28.2804H166.781V32.5531H154.145V28.2804ZM180.23 14.1667V37.4395H174.605V14.1667H180.23Z" fill="#E0712D"/>
</svg>
