<svg width="31" height="30" viewBox="0 0 31 30" fill="none" xmlns="http://www.w3.org/2000/svg">
<path d="M5.16602 23.75V12.5C5.16602 12.1042 5.25772 11.7292 5.44114 11.375C5.62456 11.0208 5.87729 10.7292 6.19935 10.5L13.9493 4.875C14.4014 4.54167 14.9181 4.375 15.4993 4.375C16.0806 4.375 16.5973 4.54167 17.0493 4.875L24.7993 10.5C25.1223 10.7292 25.3754 11.0208 25.5588 11.375C25.7423 11.7292 25.8335 12.1042 25.8327 12.5V23.75C25.8327 24.4375 25.5795 25.0263 25.0732 25.5163C24.5668 26.0063 23.9589 26.2508 23.2493 26.25H19.3743C19.0084 26.25 18.7018 26.13 18.4547 25.89C18.2075 25.65 18.0835 25.3533 18.0827 25V18.75C18.0827 18.3958 17.9587 18.0992 17.7107 17.86C17.4627 17.6208 17.1561 17.5008 16.791 17.5H14.2077C13.8417 17.5 13.5352 17.62 13.288 17.86C13.0409 18.1 12.9169 18.3967 12.916 18.75V25C12.916 25.3542 12.792 25.6512 12.544 25.8912C12.296 26.1312 11.9895 26.2508 11.6243 26.25H7.74935C7.03893 26.25 6.43099 26.0054 5.92552 25.5163C5.42004 25.0271 5.16688 24.4383 5.16602 23.75Z" fill="#E0712D"/>
</svg>
