<svg width="79" height="79" viewBox="0 0 79 79" fill="none" xmlns="http://www.w3.org/2000/svg">
<path d="M33.6833 46.2167L25.2625 37.7958C24.5444 37.0778 23.6306 36.7188 22.5208 36.7188C21.4111 36.7188 20.4972 37.0778 19.7792 37.7958C19.0611 38.5139 18.7021 39.4278 18.7021 40.5375C18.7021 41.6472 19.0611 42.5611 19.7792 43.2792L30.9417 54.4417C31.725 55.225 32.6389 55.6167 33.6833 55.6167C34.7278 55.6167 35.6417 55.225 36.425 54.4417L58.5542 32.3125C59.2722 31.5944 59.6313 30.6806 59.6313 29.5708C59.6313 28.4611 59.2722 27.5472 58.5542 26.8292C57.8361 26.1111 56.9222 25.7521 55.8125 25.7521C54.7028 25.7521 53.7889 26.1111 53.0708 26.8292L33.6833 46.2167ZM39.1667 78.3333C33.7486 78.3333 28.6569 77.3052 23.8917 75.249C19.1264 73.1927 14.9812 70.4021 11.4563 66.8771C7.93125 63.3521 5.14063 59.2069 3.08438 54.4417C1.02812 49.6764 0 44.5847 0 39.1667C0 33.7486 1.02812 28.6569 3.08438 23.8917C5.14063 19.1264 7.93125 14.9812 11.4563 11.4563C14.9812 7.93125 19.1264 5.14063 23.8917 3.08438C28.6569 1.02812 33.7486 0 39.1667 0C44.5847 0 49.6764 1.02812 54.4417 3.08438C59.2069 5.14063 63.3521 7.93125 66.8771 11.4563C70.4021 14.9812 73.1927 19.1264 75.249 23.8917C77.3052 28.6569 78.3333 33.7486 78.3333 39.1667C78.3333 44.5847 77.3052 49.6764 75.249 54.4417C73.1927 59.2069 70.4021 63.3521 66.8771 66.8771C63.3521 70.4021 59.2069 73.1927 54.4417 75.249C49.6764 77.3052 44.5847 78.3333 39.1667 78.3333Z" fill="#E0712D"/>
</svg>
