<svg width="112" height="172" viewBox="0 0 112 172" fill="none" xmlns="http://www.w3.org/2000/svg">
<path d="M31.7007 1.06905C31.1305 1.66288 30.5127 2.37547 30.2989 2.70801C30.0851 3.0168 29.8237 3.32559 29.7287 3.39684C29.4198 3.61062 27.2578 7.29234 26.5688 8.74127C24.6918 12.7318 23.0287 20.2377 23.884 20.9265C24.0503 21.0691 25.1433 21.3066 26.3074 21.4491C28.612 21.7341 31.2255 22.2567 32.1284 22.5893C32.461 22.708 32.8411 22.8505 32.9599 22.8743C33.9103 23.1118 36.8326 24.3232 38.2344 25.0596C40.1826 26.1047 42.9624 27.7912 43.3425 28.1712C43.5088 28.3375 43.9127 28.6463 44.2454 28.8838L44.8156 29.2876L45.2432 26.7223C45.6709 24.252 46.7638 20.2852 47.4766 18.5988C48.5219 16.1997 51.373 11.5679 52.6085 10.2852C52.9173 9.95267 53.2975 9.3826 53.4638 9.0263C53.7489 8.38497 53.7014 8.28996 52.8698 7.50611C52.3709 7.05481 51.4918 6.38972 50.8978 6.00967C50.3039 5.62963 49.7099 5.22582 49.5673 5.13081C48.8546 4.5845 48.2131 4.2282 46.2173 3.27808C42.3684 1.42535 38.6858 0.403969 34.9794 0.142687L32.6986 0.000169754L31.7007 1.06905Z" fill="#E0712D"/>
<path d="M74.0651 0.427732C70.3112 0.997803 67.4839 1.94792 64.2527 3.68189C61.069 5.3921 57.5527 7.95742 57.5527 8.575C57.5527 8.71752 58.3368 9.83391 59.2871 11.0453C61.3779 13.7532 62.7322 15.9859 63.73 18.48C64.1339 19.5251 64.5853 20.594 64.6804 20.8553C65.0843 21.7817 66.1059 26.2472 66.2485 27.7674C66.3435 28.5988 66.4861 29.2876 66.5573 29.2876C66.6524 29.2876 67.0563 29.0026 67.4839 28.6225C68.957 27.3636 69.6222 26.9123 72.0694 25.6296C76.6311 23.2306 80.5038 21.9717 85.113 21.3779L87.6077 21.0691L87.5364 19.3113C87.4176 15.4871 85.4218 9.35885 83.0697 5.58213C81.9293 3.7769 79.9573 1.23533 79.1257 0.475237C78.5555 0.000177383 76.9162 -0.0235748 74.0651 0.427732Z" fill="#E0712D"/>
<path d="M55.1779 10.8315C54.9878 10.9978 54.4413 11.5916 53.9662 12.1854C49.9747 17.2211 47.7176 23.0643 47.1949 29.7864C47.0286 31.7579 46.9573 31.5916 49.1906 34.0382C49.6896 34.5607 51.1151 36.556 51.7328 37.5774C51.8754 37.7911 52.2555 38.385 52.5882 38.9075C53.1584 39.8339 54.869 43.6106 55.3679 45.0833L55.6055 45.7959L56.0569 44.727C56.3183 44.1332 56.8885 42.803 57.3399 41.7579C57.9814 40.2139 61.6878 34.2757 62.2818 33.8006C62.353 33.7294 62.8282 33.2068 63.3509 32.6367L64.2775 31.5916L64.1349 29.5014C63.9211 26.5322 63.0658 22.7793 62.0917 20.3802C60.785 17.1736 58.124 12.7793 56.5559 11.2116C55.7718 10.4515 55.6768 10.4277 55.1779 10.8315Z" fill="#E0712D"/>
<path d="M17.514 23.8724C11.8119 24.7513 7.60655 26.6277 2.02322 30.7608C0.0274795 32.2334 -0.0913146 32.661 0.43138 36.509C1.07287 41.1408 2.66471 45.4639 5.11187 49.2643C6.56116 51.5446 8.17676 53.5161 8.60442 53.5161C8.93704 53.5161 10.7427 52.281 12.0494 51.1646C13.0236 50.357 16.5161 48.3855 19.0583 47.2453C20.9353 46.414 23.9051 45.6064 27.6828 44.965C28.5618 44.7988 29.2746 44.6087 29.2746 44.5137C29.2746 44.4187 28.8232 43.7299 28.2767 43.0173C25.1406 38.9318 23.0498 34.2524 21.9094 28.813C21.648 27.5779 21.4342 26.1052 21.4342 25.5351C21.4342 23.9199 21.1253 23.5636 19.8186 23.6349C19.2009 23.6586 18.1792 23.7536 17.514 23.8724Z" fill="#E0712D"/>
<path d="M23.7215 24.1105C23.6027 24.6093 24.0778 27.911 24.6718 30.5713C25.5034 34.3955 28.4495 39.9062 31.3956 43.2316L32.6548 44.6568L34.9356 44.8231C36.1948 44.9181 37.6916 45.0844 38.2619 45.2031C38.8321 45.3457 39.6636 45.5119 40.115 45.5832C41.0416 45.7257 44.4629 46.9134 46.9338 47.9347C47.8367 48.3148 48.5969 48.5523 48.692 48.4811C48.7633 48.386 48.5019 47.6497 48.1218 46.8183C46.3636 42.9941 45.1757 38.5523 44.843 34.3955L44.6767 32.3528L43.4888 31.2839C40.4001 28.5048 33.9853 25.1556 30.3739 24.443C30.1126 24.3718 29.3998 24.2293 28.7821 24.0867C28.1644 23.9442 26.8101 23.7542 25.7647 23.6829C23.8878 23.5404 23.864 23.5404 23.7215 24.1105Z" fill="#E0712D"/>
<path d="M84.831 23.6817C84.7835 23.7292 84.2133 23.8479 83.548 23.9192C78.5587 24.5843 71.9299 27.6722 67.8909 31.2351L66.7505 32.2565L66.2991 35.7719C65.7764 40 64.9686 42.7791 62.8778 47.4822L62.3076 48.7886L62.8303 48.6223C63.1154 48.551 63.7569 48.266 64.2558 48.0047C65.23 47.5059 68.2948 46.437 70.3619 45.8432C72.3576 45.2494 73.8782 45.0118 76.3253 44.8218C78.4636 44.6556 78.5824 44.608 79.414 43.8004C81.4097 41.8289 84.3321 37.1496 85.5913 34.0142C86.7079 31.1639 87.9434 24.9406 87.5633 23.9667C87.4445 23.6817 87.1118 23.5867 86.1852 23.5867C85.4962 23.5867 84.8785 23.6342 84.831 23.6817Z" fill="#E0712D"/>
<path d="M90.0192 24.1577C89.9004 24.514 89.7816 25.1553 89.7816 25.5591C89.7816 26.3192 89.3064 29.0033 88.8075 31.1173C88.3798 32.97 87.4532 35.4166 86.4553 37.3881C85.1724 39.9534 85.1011 40.0484 83.3904 42.4237C82.5589 43.5639 81.9412 44.5615 82.0124 44.6328C82.0837 44.704 82.8678 44.8703 83.7468 44.9891C86.0277 45.2978 86.3128 45.3691 87.8333 45.7967C88.5699 46.0342 89.3539 46.248 89.544 46.2955C89.7341 46.343 90.2805 46.5092 90.7319 46.6993C91.1833 46.8893 91.9436 47.1743 92.395 47.3406C94.7234 48.2432 98.8812 50.8085 101.423 52.9226C102.017 53.4214 102.54 53.6826 102.706 53.5639C104.203 52.685 108.171 46.2242 109.359 42.78C110.476 39.4309 111.402 34.0864 111.069 32.78C110.927 32.1387 108.741 30.2622 106.223 28.5995C102.255 25.9629 96.8617 24.0627 92.1812 23.6826L90.2805 23.5164L90.0192 24.1577Z" fill="#E0712D"/>
<path d="M47.6468 37.4119C47.7181 38.2908 48.0744 39.9535 48.3833 41.0936C48.9773 43.1839 51.2819 48.1008 52.2085 49.2409C52.4698 49.5735 52.945 50.2385 53.2301 50.7136C53.5152 51.2124 53.8716 51.6162 53.9904 51.6162C54.4656 51.6162 53.2063 45.7967 52.3035 43.8727C52.0422 43.3027 51.5907 42.3288 51.3294 41.735C51.0443 41.1411 50.4503 40.1435 50.0227 39.5022C49.5712 38.8609 49.2149 38.267 49.2149 38.1958C49.2149 38.1245 48.8347 37.5782 48.3358 36.9606L47.4805 35.8205L47.6468 37.4119Z" fill="#E0712D"/>
<path d="M62.3921 37.6495C60.4439 40.4523 58.2581 44.9891 57.8304 47.2219C57.7116 47.7445 57.5928 48.3383 57.5453 48.5283C57.3077 49.4547 57.0939 51.6162 57.2602 51.6162C57.3552 51.6162 58.1868 50.4286 59.1372 48.9796C60.9428 46.2243 62.1545 43.6115 62.9386 40.7611C63.4375 39.0509 63.8176 36.1768 63.5801 36.1768C63.5088 36.1768 62.9623 36.8419 62.3921 37.6495Z" fill="#E0712D"/>
<path d="M79.0997 47.4592C78.6721 47.7918 78.2444 48.1243 78.1731 48.2431C77.9831 48.4806 75.4409 50.3809 74.2292 51.1647C73.7065 51.4972 72.8512 52.0436 72.3285 52.3999C71.8058 52.7324 70.2615 53.445 68.9072 53.9676C65.7235 55.2027 65.082 55.4877 65.082 55.6778C65.082 55.7728 65.6522 55.9866 66.3412 56.1291C69.7625 56.9604 75.7973 60.4996 78.9334 63.5875C79.8363 64.4664 85.5146 63.7775 89.91 62.2573C91.8582 61.5923 96.016 59.3832 97.7504 58.1243C98.5345 57.5543 99.4135 56.8892 99.7224 56.6754C100.815 55.8915 100.839 55.4877 99.8412 54.5614C96.9664 51.8298 89.8387 48.3381 85.7997 47.6968C85.3246 47.6255 84.4455 47.4592 83.8515 47.3405C83.2575 47.2217 82.1409 47.0792 81.3568 46.9842C80.0739 46.8654 79.8363 46.9129 79.0997 47.4592Z" fill="#E0712D"/>
<path d="M28.0255 47.1744C27.9542 47.2457 27.479 47.3644 26.9563 47.4357C24.818 47.7445 24.2478 47.887 21.8482 48.6946C18.3794 49.8585 15.3383 51.4975 12.2259 53.849C10.4439 55.1792 10.3014 55.6542 11.4656 56.6756C12.606 57.697 15.7897 59.7635 17.7142 60.7136C21.4205 62.5663 26.7663 63.9678 30.14 63.9678C31.7081 63.9678 31.7556 63.944 33.1336 62.7564C36.3173 60.0723 41.1404 57.3407 44.6567 56.2243C45.3694 56.0105 46.0584 55.7492 46.1535 55.6542C46.2723 55.5592 45.6783 55.2504 44.8467 54.9654C44.0152 54.6566 42.9936 54.2766 42.5659 54.0865C42.1382 53.8965 41.7106 53.754 41.5918 53.754C41.2592 53.754 37.0063 51.3549 36.4836 50.8799C36.2223 50.6186 35.9134 50.4286 35.8184 50.4286C35.6996 50.4286 35.1769 50.0248 34.6067 49.5022C32.7535 47.8157 31.6368 47.2694 29.8074 47.1507C28.9046 47.1032 28.0968 47.1032 28.0255 47.1744Z" fill="#E0712D"/>
<path d="M36.0301 47.7204C37.4556 49.0506 41.9698 51.6159 42.8489 51.6159C43.039 51.6159 43.2766 51.7109 43.4191 51.8297C43.823 52.2335 49.5251 53.5161 50.8794 53.5161C51.4734 53.5161 51.4496 53.4924 50.6418 52.8035C49.6439 51.9484 45.9851 49.9057 44.2269 49.2406C42.6826 48.6705 38.7149 47.6966 36.8617 47.4591C35.5787 47.2928 35.5549 47.2928 36.0301 47.7204Z" fill="#E0712D"/>
<path d="M71.99 47.9349C69.234 48.4338 68.2836 48.7663 65.3375 50.1202C64.1021 50.6903 61.3935 52.353 60.1106 53.3506L59.5166 53.8257L61.156 53.6594C65.1474 53.2794 68.64 51.973 72.6552 49.3126C75.34 47.5311 75.2449 47.3174 71.99 47.9349Z" fill="#E0712D"/>
<path d="M48.1318 57.6022C46.9676 57.8635 45.6846 58.2198 45.3045 58.4098C44.9243 58.5998 44.5204 58.7423 44.4254 58.7423C43.38 58.7423 34.9931 63.7067 35.9672 63.7305C36.4424 63.7305 39.6974 63.1842 40.8615 62.8754C42.5722 62.4478 45.6133 61.2602 46.73 60.5951C47.2527 60.2863 47.9417 59.8825 48.2981 59.6925C50.2938 58.5523 50.8165 58.2435 51.458 57.6972L52.1708 57.1034L51.2204 57.1271C50.6977 57.1271 49.3197 57.3409 48.1318 57.6022Z" fill="#E0712D"/>
<path d="M59.1816 57.1747C59.1816 57.6735 65.3827 61.1652 67.9962 62.1391C70.4196 63.0654 74.7437 63.8968 74.9813 63.493C75.2664 63.0417 70.4671 60.1913 67.2596 58.8849C64.7174 57.8398 59.1816 56.6759 59.1816 57.1747Z" fill="#E0712D"/>
<path d="M7.62658 58.2911C5.93971 60.3814 4.30035 62.8992 3.42127 64.7044C2.37588 66.8422 1.11666 70.4289 0.879077 71.8541C0.8078 72.3529 0.641488 73.208 0.522694 73.7543C0.4039 74.3244 0.237588 75.607 0.142553 76.6284L0 78.4574L0.902835 79.3838C1.66312 80.1439 3.54007 81.5215 6.08226 83.1605C7.12765 83.8256 10.4776 85.3458 12.1645 85.9158C14.8255 86.7947 17.0113 87.2698 19.1971 87.4123C21.4542 87.5786 21.1929 87.9111 21.6443 84.1581C22.072 80.7852 23.4024 76.2246 24.6379 73.8256C25.7783 71.6641 26.6099 70.3339 27.7503 68.7899C28.4393 67.8398 29.0095 66.8897 29.0095 66.6997C29.0095 66.3196 28.8195 66.2721 26.2773 65.8683C20.7652 64.9895 15.1819 62.4479 10.2163 58.5049C9.55105 57.9823 8.83828 57.5548 8.62445 57.5548C8.38687 57.5548 7.95921 57.8873 7.62658 58.2911Z" fill="#E0712D"/>
<path d="M101.541 58.0779C101.161 58.3629 100.805 58.6717 100.734 58.743C100.662 58.8142 100.187 59.1943 99.6645 59.5743C95.1741 62.9473 89.472 65.2988 84.1025 65.9876C83.3897 66.0827 82.6056 66.2727 82.3681 66.3914C81.9642 66.5815 82.0117 66.7002 82.7482 67.7216C84.4588 70.0969 85.2904 71.3321 85.2904 71.4508C85.2904 71.5221 85.5517 71.9971 85.8606 72.496C86.1932 72.9948 86.7159 74.0874 87.0723 74.9188C87.4049 75.7501 87.7851 76.6527 87.9039 76.914C88.4028 77.9354 89.3056 81.9021 89.567 84.1112C89.9946 87.7216 89.8759 87.4841 91.1826 87.4841C96.7422 87.4841 105.842 83.6836 110.095 79.5981L111.259 78.4817L111.092 76.534C110.831 73.3036 109.311 67.3178 108.55 66.4627C108.431 66.3439 108.336 66.0827 108.336 65.8689C108.336 65.6551 107.814 64.5862 107.149 63.4936C106.507 62.4009 105.961 61.4746 105.961 61.4271C105.961 61.3558 105.818 61.1658 105.675 60.9995C105.509 60.8095 104.844 59.9781 104.202 59.123C103.561 58.2442 102.872 57.5553 102.634 57.5553C102.421 57.5553 101.922 57.7929 101.541 58.0779Z" fill="#E0712D"/>
<path d="M53.2931 60.192C52.6279 61.0709 51.5587 62.7811 50.6321 64.4438C49.0403 67.2704 47.4485 72.5911 47.6385 74.4676C47.7098 75.2277 47.7336 75.2039 49.0403 73.2324C50.6084 70.8809 51.5825 69.0044 52.4378 66.7716C53.1268 64.8714 54.0772 60.6671 53.9584 59.907C53.8871 59.4082 53.8396 59.4082 53.2931 60.192Z" fill="#E0712D"/>
<path d="M57.2413 60.2151C57.6927 62.8991 57.9065 63.8018 58.453 65.512C59.4508 68.6474 62.3019 73.8018 63.6086 74.8944C63.9888 75.1794 64.0125 75.1557 63.8937 74.6331C63.8225 74.3243 63.6561 73.3267 63.5136 72.4241C63.1572 70.2388 62.3257 67.7447 61.1615 65.417C60.0923 63.2792 57.6214 59.455 57.3125 59.455C57.1937 59.455 57.17 59.8113 57.2413 60.2151Z" fill="#E0712D"/>
<path d="M46.7498 63.1373C43.6373 64.6337 38.9806 65.8927 35.3455 66.2252C32.637 66.4865 32.542 66.5102 31.5916 67.5554C27.6239 71.9972 24.5115 78.8143 23.8938 84.515C23.5849 87.4366 23.5611 87.3654 24.7016 87.4366C26.0558 87.5316 29.6672 86.914 32.0193 86.154C36.1296 84.8713 42.8295 80.9283 44.2788 78.933C44.5639 78.553 44.7778 77.7454 44.849 76.7953C45.2054 72.211 46.2983 67.9829 48.199 64.0637C48.793 62.8285 48.9118 62.2822 48.6029 62.3297C48.4842 62.3297 47.6763 62.7098 46.7498 63.1373Z" fill="#E0712D"/>
<path d="M62.2822 62.4002C62.2822 62.4477 62.7099 63.4454 63.2563 64.6093C63.779 65.7494 64.3255 66.9133 64.4205 67.1746C65.2758 69.1223 66.0599 72.8278 66.4638 76.7945C66.6539 78.7185 66.7251 78.8848 68.2695 80.1912C72.7599 83.9917 79.9113 86.9846 85.4708 87.4121C87.324 87.5546 87.4191 87.5309 87.5854 87.0321C87.8705 86.1057 87.0152 81.3314 86.0173 78.3622C85.3045 76.272 83.7602 73.1128 82.6435 71.4501C81.0517 69.0986 79.151 66.7945 78.6045 66.6045C78.3194 66.4857 77.2028 66.3432 76.1336 66.2482C74.0428 66.1057 70.6216 65.4169 68.8159 64.823C66.6776 64.0867 63.8266 62.9466 63.3514 62.6378C62.9237 62.329 62.2822 62.1865 62.2822 62.4002Z" fill="#E0712D"/>
<path d="M55.1876 66.5103C55.0213 67.1516 54.5699 68.268 54.1897 69.0044C53.8333 69.7407 53.5245 70.4058 53.5245 70.4533C53.5245 70.5958 50.8635 74.9664 50.6734 75.1326C50.6021 75.2039 50.1032 75.8452 49.5568 76.5578C49.0103 77.2704 48.3688 78.078 48.1075 78.3631C47.2046 79.3369 47.0383 79.8832 47.2046 81.641C47.8224 88.173 50.0319 93.8262 53.9284 98.8144C54.6649 99.7645 55.4489 100.548 55.6628 100.548C56.328 100.548 58.8227 97.2467 60.4858 94.135C62.4816 90.4296 63.8596 85.7027 64.1209 81.5697L64.2635 79.5269L63.028 78.1018C60.3433 74.9901 56.9695 69.2894 56.1142 66.3915C55.9479 65.8452 55.7578 65.3939 55.6865 65.3939C55.5915 65.3939 55.3777 65.8927 55.1876 66.5103Z" fill="#E0712D"/>
<path d="M66.4311 81.9739C66.3598 82.0689 66.241 82.7815 66.1698 83.5653C65.9559 85.3943 64.7205 90.1449 64.1265 91.4513C63.8652 92.0214 63.6513 92.5202 63.6513 92.5914C63.6513 92.9715 62.1545 95.7506 61.0379 97.437C59.351 100.002 59.1372 100.311 58.4244 101.095C57.5216 102.116 57.4265 102.568 57.973 103.257C58.5432 103.993 62.3921 106.534 64.7205 107.722C68.3081 109.551 73.7726 111 77.1464 111H78.6907L79.8311 109.765C80.4726 109.076 80.9953 108.435 80.9953 108.34C80.9953 108.268 81.1378 108.031 81.3041 107.865C81.7793 107.366 82.991 105.513 83.9176 103.85C85.6045 100.762 87.1013 95.9406 87.5052 92.1164C87.719 90.0974 87.529 89.9074 84.9155 89.6223C82.1595 89.3135 80.5676 88.981 78.3818 88.2684C76.6712 87.7221 71.9669 85.6318 71.7293 85.323C71.6581 85.228 71.1829 84.9667 70.6602 84.6817C70.1375 84.4204 68.9971 83.6603 68.118 82.9952C67.2389 82.3539 66.4786 81.8788 66.4311 81.9739Z" fill="#E0712D"/>
<path d="M42.6185 83.3282C39.4586 85.7035 34.6593 87.9362 30.6916 88.8864C28.6721 89.3614 28.1256 89.4564 25.2746 89.7415C24.348 89.8602 23.7303 90.0265 23.6352 90.2403C23.4214 90.8341 24.0866 94.9671 24.8707 97.6987C26.2962 102.639 28.7909 107.057 32.0696 110.478C32.6161 111.048 32.7111 111.072 35.0395 110.905C38.7696 110.692 42.1196 109.765 45.8973 107.96C49.3423 106.321 53.7377 103.304 53.7377 102.592C53.7377 102.426 53.1199 101.475 52.3359 100.502C48.5107 95.656 46.0398 90.0028 45.1845 84.0883C44.9944 82.9481 44.7568 82.0218 44.6143 82.0218C44.4717 82.0218 43.5689 82.6156 42.6185 83.3282Z" fill="#E0712D"/>
<path d="M2.39125 140.727H9.35716L15.2662 155.136H15.539L21.4481 140.727H28.414V164H22.9367V149.705H22.7435L17.1526 163.852H13.6526L8.0617 149.625H7.86852V164H2.39125V140.727ZM40.0816 164.33C38.2558 164.33 36.6801 163.97 35.3543 163.25C34.0361 162.523 33.021 161.489 32.3089 160.148C31.6043 158.799 31.252 157.197 31.252 155.341C31.252 153.538 31.6081 151.962 32.3202 150.614C33.0323 149.258 34.0361 148.205 35.3316 147.455C36.627 146.697 38.1536 146.318 39.9111 146.318C41.1536 146.318 42.2899 146.511 43.3202 146.898C44.3505 147.284 45.2407 147.856 45.9907 148.614C46.7407 149.371 47.324 150.307 47.7407 151.42C48.1573 152.527 48.3657 153.795 48.3657 155.227V156.614H33.1952V153.386H43.1952C43.1876 152.795 43.0475 152.269 42.7748 151.807C42.502 151.345 42.127 150.985 41.6498 150.727C41.1801 150.462 40.6384 150.33 40.0248 150.33C39.4036 150.33 38.8467 150.47 38.3543 150.75C37.8619 151.023 37.4717 151.398 37.1839 151.875C36.896 152.345 36.7445 152.879 36.7293 153.477V156.761C36.7293 157.473 36.8695 158.098 37.1498 158.636C37.4301 159.167 37.8278 159.58 38.343 159.875C38.8581 160.17 39.4717 160.318 40.1839 160.318C40.6763 160.318 41.1233 160.25 41.5248 160.114C41.9263 159.977 42.271 159.777 42.5589 159.511C42.8467 159.246 43.0626 158.92 43.2066 158.534L48.3089 158.682C48.0967 159.826 47.6308 160.822 46.9111 161.67C46.199 162.511 45.2634 163.167 44.1043 163.636C42.9452 164.098 41.6043 164.33 40.0816 164.33ZM57.5787 164.25C56.2909 164.25 55.1204 163.917 54.0674 163.25C53.0144 162.583 52.1734 161.583 51.5447 160.25C50.9159 158.917 50.6015 157.261 50.6015 155.284C50.6015 153.231 50.9272 151.542 51.5787 150.216C52.2303 148.89 53.0825 147.909 54.1356 147.273C55.1962 146.636 56.3363 146.318 57.556 146.318C58.4727 146.318 59.2568 146.477 59.9083 146.795C60.5598 147.106 61.0977 147.508 61.5219 148C61.9462 148.492 62.2681 149.004 62.4878 149.534H62.6015V140.727H68.1583V164H62.6583V161.17H62.4878C62.253 161.708 61.9197 162.212 61.4878 162.682C61.056 163.152 60.5144 163.53 59.8628 163.818C59.2189 164.106 58.4575 164.25 57.5787 164.25ZM59.5106 159.92C60.1848 159.92 60.7606 159.731 61.2378 159.352C61.7151 158.966 62.0825 158.424 62.3401 157.727C62.5977 157.03 62.7265 156.212 62.7265 155.273C62.7265 154.318 62.5977 153.496 62.3401 152.807C62.0901 152.117 61.7227 151.587 61.2378 151.216C60.7606 150.845 60.1848 150.659 59.5106 150.659C58.8212 150.659 58.2378 150.848 57.7606 151.227C57.2833 151.606 56.9197 152.14 56.6697 152.83C56.4272 153.519 56.306 154.333 56.306 155.273C56.306 156.212 56.431 157.03 56.681 157.727C56.931 158.424 57.2909 158.966 57.7606 159.352C58.2378 159.731 58.8212 159.92 59.5106 159.92ZM83.5816 164H77.5361L85.3884 140.727H92.877L100.729 164H94.6839L89.218 146.591H89.0361L83.5816 164ZM82.7748 154.841H95.4111V159.114H82.7748V154.841ZM108.86 140.727V164H103.235V140.727H108.86Z" fill="#E0712D"/>
</svg>
