<svg width="24" height="24" viewBox="0 0 24 24" fill="none" xmlns="http://www.w3.org/2000/svg">
<path d="M10.1908 1.28589C8.88302 1.30792 7.70177 2.08792 7.1674 3.29401L13.5658 5.22667C13.8471 3.54901 12.8393 1.92245 11.2174 1.42886C10.9268 1.34073 10.6221 1.29245 10.3174 1.28589H10.1908ZM6.92365 4.10214C6.63771 5.78448 7.64552 7.41573 9.27209 7.90792C10.9033 8.40011 12.6424 7.59386 13.3268 6.03292L6.92365 4.10214ZM19.369 6.17823C18.183 6.18292 16.9221 6.75479 15.9705 8.10011L10.1205 16.3923C8.55021 18.6142 9.23459 20.9392 10.7815 22.036C12.333 23.1376 14.7471 23.011 16.3174 20.7892L22.1627 12.5017C23.733 10.2751 23.0486 7.95479 21.5018 6.85323C20.9205 6.44073 20.2221 6.20167 19.4861 6.17823H19.369ZM19.2846 6.98917C19.3455 6.98917 19.4065 6.98917 19.4627 6.99386C20.0299 7.01729 20.5643 7.21886 21.0143 7.54229C22.219 8.39542 22.8236 10.097 21.469 12.0142L18.4455 16.3032C16.7674 15.8532 14.6111 14.3204 13.6315 12.8814L16.6643 8.58761C17.4565 7.46729 18.3986 7.00792 19.2846 6.98917ZM4.27756 10.561C3.82662 10.5657 3.38177 10.6595 2.96834 10.8423C1.41631 11.522 0.608649 13.2564 1.08209 14.8876L7.20959 12.211C6.59552 11.1751 5.4799 10.547 4.27756 10.561ZM7.5424 12.9798L1.41584 15.661C2.28068 17.1329 4.10177 17.7235 5.66271 17.0439C7.21896 16.3595 8.02521 14.6157 7.5424 12.9798Z" fill="#E0712D"/>
</svg>
