<svg width="52" height="52" viewBox="0 0 52 52" fill="none" xmlns="http://www.w3.org/2000/svg">
<path d="M52 26C52 40.3594 40.3594 52 26 52C11.6406 52 0 40.3594 0 26C0 11.6406 11.6406 0 26 0C40.3594 0 52 11.6406 52 26ZM5.43885 26C5.43885 37.3556 14.6444 46.5611 26 46.5611C37.3556 46.5611 46.5611 37.3556 46.5611 26C46.5611 14.6444 37.3556 5.43885 26 5.43885C14.6444 5.43885 5.43885 14.6444 5.43885 26Z" fill="#E0712D"/>
<rect x="8.5" y="8.5" width="35" height="35" rx="17.5" fill="white"/>
<rect x="8.5" y="8.5" width="35" height="35" rx="17.5" stroke="#E0712D"/>
<path d="M30.243 18.35C30.243 15.9476 28.2954 14 25.893 14C23.4905 14 21.543 15.9476 21.543 18.35V26.4286C21.543 28.8311 23.4905 30.7786 25.893 30.7786C28.2954 30.7786 30.243 28.8311 30.243 26.4286V18.35Z" fill="white" stroke="#E0712D" stroke-width="2" stroke-linejoin="round"/>
<path d="M16.5713 25.8066C16.5713 30.9548 20.7446 35.1281 25.8927 35.1281C31.0408 35.1281 35.2141 30.9548 35.2141 25.8066" stroke="#E0712D" stroke-width="2" stroke-linecap="round" stroke-linejoin="round"/>
<path d="M25.8926 35.1287V38.8572" stroke="#E0712D" stroke-width="2" stroke-linecap="round" stroke-linejoin="round"/>
</svg>
