<svg width="32" height="32" viewBox="0 0 32 32" fill="none" xmlns="http://www.w3.org/2000/svg">
<path fill-rule="evenodd" clip-rule="evenodd" d="M5.66699 25.3334C5.66699 25.0682 5.77235 24.8138 5.95989 24.6263C6.14742 24.4388 6.40178 24.3334 6.66699 24.3334H25.3337C25.5989 24.3334 25.8532 24.4388 26.0408 24.6263C26.2283 24.8138 26.3337 25.0682 26.3337 25.3334C26.3337 25.5986 26.2283 25.853 26.0408 26.0405C25.8532 26.2281 25.5989 26.3334 25.3337 26.3334H6.66699C6.40178 26.3334 6.14742 26.2281 5.95989 26.0405C5.77235 25.853 5.66699 25.5986 5.66699 25.3334ZM9.66699 29.3334C9.66699 29.0682 9.77235 28.8138 9.95988 28.6263C10.1474 28.4388 10.4018 28.3334 10.667 28.3334H21.3337C21.5989 28.3334 21.8532 28.4388 22.0408 28.6263C22.2283 28.8138 22.3337 29.0682 22.3337 29.3334C22.3337 29.5986 22.2283 29.853 22.0408 30.0405C21.8532 30.2281 21.5989 30.3334 21.3337 30.3334H10.667C10.4018 30.3334 10.1474 30.2281 9.95988 30.0405C9.77235 29.853 9.66699 29.5986 9.66699 29.3334ZM16.0003 1.66675C16.2655 1.66675 16.5199 1.7721 16.7074 1.95964C16.895 2.14718 17.0003 2.40153 17.0003 2.66675V4.00008C17.0003 4.2653 16.895 4.51965 16.7074 4.70719C16.5199 4.89472 16.2655 5.00008 16.0003 5.00008C15.7351 5.00008 15.4808 4.89472 15.2932 4.70719C15.1057 4.51965 15.0003 4.2653 15.0003 4.00008V2.66675C15.0003 2.40153 15.1057 2.14718 15.2932 1.95964C15.4808 1.7721 15.7351 1.66675 16.0003 1.66675ZM5.86566 5.86541C6.05316 5.67815 6.30732 5.57296 6.57233 5.57296C6.83733 5.57296 7.09149 5.67815 7.27899 5.86541L7.80299 6.38808C7.98524 6.5766 8.08616 6.82915 8.084 7.09135C8.08185 7.35355 7.9768 7.60441 7.79148 7.78991C7.60615 7.97541 7.35539 8.08069 7.09319 8.08309C6.831 8.0855 6.57835 7.98482 6.38966 7.80275L5.86566 7.27875C5.67839 7.09125 5.5732 6.83708 5.5732 6.57208C5.5732 6.30708 5.67839 6.05292 5.86566 5.86541ZM26.135 5.86541C26.3223 6.05292 26.4274 6.30708 26.4274 6.57208C26.4274 6.83708 26.3223 7.09125 26.135 7.27875L25.611 7.80275C25.4214 7.97939 25.1707 8.07555 24.9116 8.07098C24.6526 8.06641 24.4054 7.96146 24.2222 7.77824C24.0389 7.59503 23.934 7.34785 23.9294 7.08878C23.9249 6.82971 24.021 6.57898 24.1977 6.38941L24.7217 5.86541C24.9092 5.67815 25.1633 5.57296 25.4283 5.57296C25.6933 5.57296 25.9475 5.67815 26.135 5.86541ZM1.66699 16.0001C1.66699 15.7349 1.77235 15.4805 1.95989 15.293C2.14742 15.1054 2.40178 15.0001 2.66699 15.0001H4.00033C4.26554 15.0001 4.5199 15.1054 4.70743 15.293C4.89497 15.4805 5.00033 15.7349 5.00033 16.0001C5.00033 16.2653 4.89497 16.5197 4.70743 16.7072C4.5199 16.8947 4.26554 17.0001 4.00033 17.0001H2.66699C2.40178 17.0001 2.14742 16.8947 1.95989 16.7072C1.77235 16.5197 1.66699 16.2653 1.66699 16.0001ZM27.0003 16.0001C27.0003 15.7349 27.1057 15.4805 27.2932 15.293C27.4808 15.1054 27.7351 15.0001 28.0003 15.0001H29.3337C29.5989 15.0001 29.8532 15.1054 30.0408 15.293C30.2283 15.4805 30.3337 15.7349 30.3337 16.0001C30.3337 16.2653 30.2283 16.5197 30.0408 16.7072C29.8532 16.8947 29.5989 17.0001 29.3337 17.0001H28.0003C27.7351 17.0001 27.4808 16.8947 27.2932 16.7072C27.1057 16.5197 27.0003 16.2653 27.0003 16.0001Z" fill="#E0712D"/>
<path d="M7.00033 16C7.00033 17.5706 7.40299 19.048 8.11099 20.3333H2.66699C2.40178 20.3333 2.14742 20.4387 1.95989 20.6262C1.77235 20.8137 1.66699 21.0681 1.66699 21.3333C1.66699 21.5985 1.77235 21.8529 1.95989 22.0404C2.14742 22.2279 2.40178 22.3333 2.66699 22.3333H15.0003V15.7466L14.0403 16.7066C13.9488 16.8049 13.8384 16.8837 13.7157 16.9383C13.593 16.993 13.4606 17.0224 13.3264 17.0248C13.1921 17.0271 13.0587 17.0024 12.9342 16.9521C12.8097 16.9018 12.6966 16.827 12.6016 16.732C12.5066 16.6371 12.4318 16.5239 12.3815 16.3994C12.3312 16.2749 12.3065 16.1415 12.3089 16.0073C12.3112 15.873 12.3406 15.7406 12.3953 15.6179C12.4499 15.4952 12.5287 15.3848 12.627 15.2933L15.2937 12.6266C15.4812 12.4394 15.7353 12.3342 16.0003 12.3342C16.2653 12.3342 16.5195 12.4394 16.707 12.6266L19.3737 15.2933C19.4719 15.3848 19.5507 15.4952 19.6054 15.6179C19.66 15.7406 19.6894 15.873 19.6918 16.0073C19.6941 16.1415 19.6694 16.2749 19.6192 16.3994C19.5689 16.5239 19.494 16.6371 19.399 16.732C19.3041 16.827 19.191 16.9018 19.0665 16.9521C18.9419 17.0024 18.8086 17.0271 18.6743 17.0248C18.54 17.0224 18.4076 16.993 18.2849 16.9383C18.1623 16.8837 18.0519 16.8049 17.9603 16.7066L17.0003 15.7466V22.3333H29.3337C29.5989 22.3333 29.8532 22.2279 30.0408 22.0404C30.2283 21.8529 30.3337 21.5985 30.3337 21.3333C30.3337 21.0681 30.2283 20.8137 30.0408 20.6262C29.8532 20.4387 29.5989 20.3333 29.3337 20.3333H23.8897C24.55 19.1304 24.9266 17.7925 24.9905 16.4218C25.0545 15.051 24.8042 13.6838 24.2587 12.4247C23.7133 11.1656 22.8871 10.0478 21.8435 9.15692C20.7998 8.26603 19.5662 7.62559 18.237 7.28456C16.9079 6.94354 15.5183 6.91096 14.1746 7.18932C12.831 7.46767 11.5687 8.0496 10.4844 8.89059C9.40014 9.73159 8.52251 10.8094 7.91864 12.0416C7.31478 13.2738 7.00067 14.6278 7.00033 16Z" fill="#E0712D"/>
</svg>
