<svg width="20" height="20" viewBox="0 0 20 20" fill="none" xmlns="http://www.w3.org/2000/svg">
<path d="M4.375 1.25C4.20924 1.25 4.05027 1.31585 3.93306 1.43306C3.81585 1.55027 3.75 1.70924 3.75 1.875V18.125C3.75 18.2908 3.81585 18.4497 3.93306 18.5669C4.05027 18.6842 4.20924 18.75 4.375 18.75H8.125V17.5H5V2.5H15V8.75H16.25V1.875C16.25 1.70924 16.1842 1.55027 16.0669 1.43306C15.9497 1.31585 15.7908 1.25 15.625 1.25H4.375Z" fill="#1C1C1C"/>
<path d="M6.25 6.25H13.75V5H6.25V6.25ZM6.25 8.75H11.25V7.5H6.25V8.75Z" fill="#1C1C1C"/>
<path fill-rule="evenodd" clip-rule="evenodd" d="M13.125 10C11.9647 10 10.8519 10.4609 10.0314 11.2814C9.21094 12.1019 8.75 13.2147 8.75 14.375C8.75 15.5353 9.21094 16.6481 10.0314 17.4686C10.8519 18.2891 11.9647 18.75 13.125 18.75C14.2853 18.75 15.3981 18.2891 16.2186 17.4686C17.0391 16.6481 17.5 15.5353 17.5 14.375C17.5 13.2147 17.0391 12.1019 16.2186 11.2814C15.3981 10.4609 14.2853 10 13.125 10ZM12.5 11.875V14.375C12.4999 14.4571 12.5159 14.5385 12.5472 14.6144C12.5785 14.6903 12.6245 14.7594 12.6825 14.8175L14.5575 16.6925L15.4425 15.8075L13.75 14.1163V11.875H12.5Z" fill="#1C1C1C"/>
</svg>
