<svg width="20" height="20" viewBox="0 0 20 20" fill="none" xmlns="http://www.w3.org/2000/svg">
<path d="M8.85383 13.147C8.94756 13.2408 9.00022 13.3679 9.00022 13.5005C9.00022 13.6331 8.94756 13.7602 8.85383 13.854L7.35383 15.354C6.99557 15.7123 6.50985 15.9139 6.00315 15.9147C5.49646 15.9154 5.01014 15.7153 4.65083 15.358C4.57862 15.289 4.52883 15.1999 4.50793 15.1022C4.48702 15.0045 4.49597 14.9029 4.5336 14.8103C4.57123 14.7178 4.63581 14.6388 4.71895 14.5834C4.80209 14.5281 4.89995 14.499 4.99983 14.5C5.13783 14.5 5.26283 14.556 5.35283 14.646C5.43771 14.7309 5.53849 14.7983 5.64942 14.8443C5.76035 14.8902 5.87925 14.9139 5.99933 14.9139C6.1194 14.9139 6.2383 14.8902 6.34923 14.8443C6.46016 14.7983 6.56095 14.7309 6.64583 14.646L8.14583 13.146C8.23959 13.0523 8.36674 12.9996 8.49933 12.9996C8.63191 12.9996 8.75906 13.0523 8.85283 13.146M11.1458 3.146C11.5183 2.76114 11.9636 2.45425 12.4559 2.24323C12.9481 2.03221 13.4775 1.92127 14.013 1.91688C14.5486 1.9125 15.0797 2.01475 15.5753 2.21768C16.0709 2.4206 16.5212 2.72015 16.9 3.09887C17.2787 3.47758 17.5782 3.92788 17.7811 4.42352C17.9841 4.91917 18.0863 5.45025 18.0819 5.98581C18.0776 6.52137 17.9666 7.0507 17.7556 7.54296C17.5446 8.03521 17.2377 8.48054 16.8528 8.853L8.85283 16.853C8.09603 17.6098 7.0696 18.035 5.99933 18.035C4.92906 18.035 3.90262 17.6098 3.14583 16.853C2.38903 16.0962 1.96387 15.0698 1.96387 13.9995C1.96387 12.9292 2.38903 11.9028 3.14583 11.146L11.1458 3.146ZM16.1458 3.853C15.5765 3.28381 14.8044 2.96405 13.9993 2.96405C13.1943 2.96405 12.4222 3.28381 11.8528 3.853L8.20683 7.5L12.4998 11.793L16.1468 8.147C16.4288 7.86516 16.6524 7.53053 16.805 7.16223C16.9576 6.79392 17.0362 6.39916 17.0362 6.0005C17.0362 5.60184 16.9576 5.20708 16.805 4.83877C16.6524 4.47047 16.4288 4.13584 16.1468 3.854M11.7928 12.5L7.49983 8.207L3.85383 11.854C3.29954 12.4264 2.99247 13.1937 2.99886 13.9904C3.00525 14.7872 3.32459 15.5494 3.88798 16.1128C4.45138 16.6762 5.21367 16.9956 6.01041 17.002C6.80715 17.0084 7.57446 16.7013 8.14683 16.147L11.7928 12.5Z" fill="#1C1C1C"/>
</svg>
