<svg width="32" height="32" viewBox="0 0 32 32" fill="none" xmlns="http://www.w3.org/2000/svg">
<rect width="32" height="32" rx="10" fill="#FFF0E6"/>
<path fill-rule="evenodd" clip-rule="evenodd" d="M12.6667 8.22222C12.6667 7.63285 12.9008 7.06762 13.3175 6.65087C13.7343 6.23413 14.2995 6 14.8889 6H17.1111C17.7005 6 18.2657 6.23413 18.6825 6.65087C19.0992 7.06762 19.3333 7.63285 19.3333 8.22222V12.6667H23.7778C24.3671 12.6667 24.9324 12.9008 25.3491 13.3175C25.7659 13.7343 26 14.2995 26 14.8889V17.1111C26 17.7005 25.7659 18.2657 25.3491 18.6825C24.9324 19.0992 24.3671 19.3333 23.7778 19.3333H19.3333V23.7778C19.3333 24.3671 19.0992 24.9324 18.6825 25.3491C18.2657 25.7659 17.7005 26 17.1111 26H14.8889C14.2995 26 13.7343 25.7659 13.3175 25.3491C12.9008 24.9324 12.6667 24.3671 12.6667 23.7778V19.3333H8.22222C7.63285 19.3333 7.06762 19.0992 6.65087 18.6825C6.23413 18.2657 6 17.7005 6 17.1111V14.8889C6 14.2995 6.23413 13.7343 6.65087 13.3175C7.06762 12.9008 7.63285 12.6667 8.22222 12.6667H12.6667V8.22222Z" fill="#E0712D"/>
</svg>
