<svg width="440" height="956" viewBox="0 0 440 956" fill="none" xmlns="http://www.w3.org/2000/svg">
<g clip-path="url(#clip0_6201_6295)">
<rect width="440" height="956" fill="#E0712D"/>
<g filter="url(#filter0_f_6201_6295)">
<ellipse cx="220.14" cy="114.975" rx="220.14" ry="114.975" transform="matrix(0.382171 -0.924092 0.783392 0.621528 91.5977 647.08)" fill="url(#paint0_linear_6201_6295)" fill-opacity="0.5"/>
</g>
<g filter="url(#filter1_f_6201_6295)">
<ellipse cx="219.863" cy="114.972" rx="219.863" ry="114.972" transform="matrix(0.38211 0.924117 -0.783448 0.621457 180.15 240)" fill="url(#paint1_linear_6201_6295)" fill-opacity="0.5"/>
</g>
<g filter="url(#filter2_f_6201_6295)">
<rect x="-133" y="418" width="705" height="414" fill="#D9D9D9"/>
<rect x="-133" y="418" width="705" height="414" fill="url(#paint2_linear_6201_6295)"/>
</g>
<g filter="url(#filter3_f_6201_6295)">
<rect x="572" y="537" width="705" height="414" transform="rotate(-180 572 537)" fill="#D9D9D9"/>
<rect x="572" y="537" width="705" height="414" transform="rotate(-180 572 537)" fill="url(#paint3_linear_6201_6295)"/>
</g>
<path d="M192.04 389.249C191.373 389.943 190.652 390.775 190.402 391.164C190.152 391.525 189.847 391.885 189.735 391.969C189.375 392.218 186.848 396.52 186.043 398.213C183.85 402.876 181.907 411.646 182.906 412.451C183.101 412.618 184.378 412.895 185.738 413.062C188.431 413.395 191.484 414.005 192.539 414.394C192.928 414.533 193.372 414.699 193.511 414.727C194.621 415.005 198.036 416.42 199.674 417.28C201.95 418.502 205.198 420.472 205.643 420.916C205.837 421.111 206.309 421.471 206.697 421.749L207.364 422.221L207.863 419.223C208.363 416.337 209.64 411.702 210.473 409.731C211.694 406.928 215.026 401.516 216.469 400.017C216.83 399.629 217.274 398.963 217.469 398.546C217.802 397.797 217.746 397.686 216.775 396.77C216.192 396.243 215.165 395.466 214.47 395.022C213.776 394.578 213.082 394.106 212.916 393.995C212.083 393.356 211.333 392.94 209.002 391.83C204.504 389.665 200.201 388.472 195.871 388.166L193.206 388L192.04 389.249Z" fill="#E0712D"/>
<path d="M241.542 388.499C237.156 389.166 233.852 390.276 230.077 392.302C226.357 394.3 222.248 397.298 222.248 398.019C222.248 398.186 223.164 399.49 224.275 400.906C226.718 404.07 228.3 406.678 229.466 409.593C229.938 410.814 230.465 412.063 230.576 412.368C231.048 413.45 232.242 418.668 232.409 420.444C232.52 421.416 232.686 422.221 232.769 422.221C232.88 422.221 233.352 421.888 233.852 421.444C235.573 419.973 236.351 419.445 239.21 417.947C244.54 415.143 249.065 413.672 254.451 412.979L257.366 412.618L257.282 410.564C257.144 406.096 254.812 398.935 252.063 394.522C250.731 392.413 248.427 389.443 247.455 388.555C246.789 388 244.873 387.972 241.542 388.499Z" fill="#E0712D"/>
<path d="M219.471 400.656C219.249 400.85 218.611 401.544 218.056 402.238C213.392 408.122 210.754 414.949 210.144 422.803C209.949 425.107 209.866 424.913 212.476 427.771C213.059 428.382 214.724 430.713 215.446 431.907C215.613 432.157 216.057 432.85 216.445 433.461C217.112 434.543 219.11 438.956 219.693 440.677L219.971 441.51L220.499 440.261C220.804 439.567 221.47 438.013 221.998 436.792C222.747 434.988 227.078 428.049 227.772 427.494C227.855 427.411 228.41 426.8 229.021 426.134L230.104 424.913L229.937 422.47C229.687 419.001 228.688 414.616 227.55 411.813C226.023 408.066 222.914 402.932 221.081 401.1C220.165 400.212 220.054 400.184 219.471 400.656Z" fill="#E0712D"/>
<path d="M175.462 415.893C168.8 416.92 163.886 419.113 157.362 423.942C155.03 425.663 154.892 426.162 155.502 430.658C156.252 436.07 158.112 441.122 160.971 445.562C162.665 448.227 164.552 450.53 165.052 450.53C165.441 450.53 167.551 449.087 169.077 447.783C170.216 446.839 174.296 444.535 177.267 443.203C179.46 442.232 182.93 441.288 187.344 440.539C188.371 440.345 189.204 440.122 189.204 440.011C189.204 439.9 188.677 439.096 188.038 438.263C184.374 433.489 181.931 428.022 180.598 421.666C180.293 420.223 180.043 418.502 180.043 417.836C180.043 415.949 179.682 415.532 178.155 415.616C177.433 415.643 176.24 415.754 175.462 415.893Z" fill="#E0712D"/>
<path d="M182.717 416.172C182.578 416.755 183.133 420.612 183.827 423.721C184.799 428.189 188.241 434.628 191.684 438.514L193.155 440.179L195.82 440.373C197.291 440.484 199.04 440.679 199.706 440.817C200.373 440.984 201.344 441.178 201.872 441.261C202.954 441.428 206.952 442.816 209.839 444.009C210.894 444.453 211.782 444.731 211.893 444.647C211.977 444.536 211.671 443.676 211.227 442.705C209.173 438.236 207.785 433.046 207.396 428.189L207.202 425.802L205.814 424.553C202.205 421.306 194.709 417.393 190.49 416.56C190.184 416.477 189.352 416.31 188.63 416.144C187.908 415.977 186.326 415.755 185.104 415.672C182.911 415.506 182.883 415.506 182.717 416.172Z" fill="#E0712D"/>
<path d="M254.122 415.67C254.067 415.726 253.4 415.865 252.623 415.948C246.793 416.725 239.048 420.333 234.329 424.496L232.996 425.689L232.469 429.797C231.858 434.737 230.914 437.985 228.471 443.48L227.805 445.006L228.415 444.812C228.749 444.729 229.498 444.396 230.081 444.09C231.219 443.508 234.8 442.259 237.216 441.565C239.548 440.871 241.324 440.593 244.184 440.371C246.682 440.177 246.821 440.122 247.793 439.178C250.124 436.874 253.539 431.407 255.01 427.743C256.315 424.413 257.759 417.141 257.315 416.003C257.176 415.67 256.787 415.559 255.704 415.559C254.899 415.559 254.178 415.615 254.122 415.67Z" fill="#E0712D"/>
<path d="M260.182 416.226C260.043 416.643 259.905 417.392 259.905 417.864C259.905 418.752 259.349 421.888 258.766 424.358C258.267 426.523 257.184 429.382 256.018 431.685C254.519 434.683 254.436 434.794 252.437 437.569C251.465 438.901 250.744 440.067 250.827 440.15C250.91 440.234 251.826 440.428 252.853 440.567C255.518 440.928 255.852 441.011 257.628 441.51C258.489 441.788 259.405 442.038 259.627 442.093C259.849 442.149 260.488 442.343 261.015 442.565C261.543 442.787 262.431 443.12 262.958 443.314C265.679 444.369 270.537 447.366 273.508 449.837C274.202 450.419 274.812 450.725 275.007 450.586C276.756 449.559 281.392 442.01 282.78 437.986C284.084 434.072 285.167 427.828 284.778 426.301C284.612 425.552 282.058 423.359 279.115 421.416C274.479 418.336 268.177 416.115 262.709 415.671L260.488 415.477L260.182 416.226Z" fill="#E0712D"/>
<path d="M210.673 431.714C210.756 432.74 211.173 434.683 211.533 436.015C212.227 438.458 214.92 444.203 216.003 445.535C216.308 445.924 216.864 446.701 217.197 447.256C217.53 447.839 217.946 448.311 218.085 448.311C218.64 448.311 217.169 441.511 216.114 439.263C215.809 438.597 215.281 437.459 214.976 436.765C214.643 436.071 213.949 434.905 213.449 434.156C212.921 433.407 212.505 432.713 212.505 432.629C212.505 432.546 212.061 431.908 211.478 431.186L210.479 429.854L210.673 431.714Z" fill="#E0712D"/>
<path d="M227.901 431.991C225.625 435.266 223.071 440.567 222.571 443.176C222.432 443.787 222.294 444.48 222.238 444.703C221.96 445.785 221.711 448.311 221.905 448.311C222.016 448.311 222.988 446.923 224.098 445.23C226.208 442.01 227.624 438.957 228.54 435.627C229.123 433.629 229.567 430.27 229.289 430.27C229.206 430.27 228.568 431.047 227.901 431.991Z" fill="#E0712D"/>
<path d="M247.424 443.454C246.924 443.842 246.424 444.231 246.341 444.369C246.119 444.647 243.149 446.867 241.733 447.783C241.122 448.172 240.123 448.81 239.512 449.226C238.901 449.615 237.097 450.448 235.514 451.058C231.794 452.501 231.045 452.834 231.045 453.056C231.045 453.167 231.711 453.417 232.516 453.584C236.514 454.555 243.565 458.691 247.23 462.299C248.284 463.325 254.919 462.521 260.055 460.744C262.331 459.967 267.19 457.386 269.216 455.915C270.132 455.249 271.159 454.472 271.52 454.222C272.797 453.306 272.825 452.834 271.659 451.752C268.3 448.56 259.972 444.48 255.252 443.731C254.697 443.648 253.67 443.454 252.976 443.315C252.282 443.176 250.977 443.009 250.061 442.898C248.562 442.76 248.284 442.815 247.424 443.454Z" fill="#E0712D"/>
<path d="M187.746 443.121C187.663 443.204 187.108 443.343 186.497 443.426C183.998 443.787 183.332 443.953 180.528 444.897C176.475 446.257 172.922 448.172 169.285 450.919C167.203 452.474 167.036 453.029 168.397 454.222C169.729 455.416 173.449 457.83 175.698 458.94C180.029 461.105 186.275 462.743 190.217 462.743C192.049 462.743 192.105 462.715 193.715 461.327C197.435 458.191 203.07 454.999 207.179 453.695C208.012 453.445 208.817 453.14 208.928 453.029C209.066 452.918 208.372 452.557 207.401 452.224C206.429 451.863 205.235 451.419 204.736 451.197C204.236 450.975 203.736 450.808 203.598 450.808C203.209 450.808 198.24 448.005 197.629 447.45C197.324 447.145 196.963 446.923 196.852 446.923C196.713 446.923 196.102 446.451 195.436 445.84C193.271 443.87 191.966 443.232 189.828 443.093C188.773 443.037 187.829 443.037 187.746 443.121Z" fill="#E0712D"/>
<path d="M197.099 443.758C198.765 445.312 204.04 448.31 205.067 448.31C205.289 448.31 205.567 448.421 205.733 448.56C206.205 449.032 212.868 450.53 214.45 450.53C215.144 450.53 215.116 450.503 214.172 449.698C213.006 448.699 208.731 446.312 206.677 445.535C204.873 444.868 200.236 443.731 198.071 443.453C196.572 443.259 196.544 443.259 197.099 443.758Z" fill="#E0712D"/>
<path d="M239.116 444.009C235.895 444.592 234.785 444.98 231.342 446.562C229.899 447.229 226.734 449.171 225.235 450.337L224.541 450.892L226.457 450.698C231.12 450.254 235.201 448.727 239.893 445.619C243.03 443.537 242.919 443.287 239.116 444.009Z" fill="#E0712D"/>
<path d="M211.239 455.304C209.879 455.61 208.38 456.026 207.935 456.248C207.491 456.47 207.019 456.636 206.908 456.636C205.687 456.636 195.887 462.437 197.025 462.465C197.581 462.465 201.384 461.826 202.744 461.466C204.743 460.966 208.296 459.578 209.601 458.801C210.212 458.44 211.017 457.969 211.433 457.747C213.765 456.414 214.376 456.054 215.126 455.415L215.958 454.721L214.848 454.749C214.237 454.749 212.627 454.999 211.239 455.304Z" fill="#E0712D"/>
<path d="M224.15 454.806C224.15 455.389 231.396 459.468 234.45 460.606C237.281 461.689 242.334 462.66 242.611 462.188C242.945 461.661 237.337 458.33 233.589 456.804C230.619 455.583 224.15 454.223 224.15 454.806Z" fill="#E0712D"/>
<path d="M163.911 456.11C161.94 458.552 160.025 461.494 158.998 463.603C157.776 466.101 156.305 470.292 156.027 471.957C155.944 472.54 155.75 473.539 155.611 474.178C155.472 474.844 155.278 476.342 155.167 477.536L155 479.673L156.055 480.755C156.943 481.643 159.136 483.253 162.107 485.168C163.328 485.945 167.243 487.722 169.214 488.388C172.323 489.415 174.877 489.97 177.431 490.136C180.068 490.33 179.763 490.719 180.29 486.334C180.79 482.393 182.345 477.064 183.788 474.261C185.121 471.735 186.092 470.181 187.425 468.377C188.23 467.267 188.896 466.157 188.896 465.935C188.896 465.491 188.674 465.435 185.704 464.963C179.263 463.936 172.739 460.967 166.937 456.359C166.16 455.749 165.327 455.249 165.077 455.249C164.8 455.249 164.3 455.638 163.911 456.11Z" fill="#E0712D"/>
<path d="M273.646 455.861C273.202 456.194 272.785 456.554 272.702 456.638C272.619 456.721 272.063 457.165 271.453 457.609C266.206 461.55 259.543 464.298 253.269 465.103C252.436 465.214 251.52 465.436 251.243 465.574C250.771 465.797 250.826 465.935 251.687 467.129C253.686 469.904 254.657 471.347 254.657 471.486C254.657 471.569 254.963 472.124 255.324 472.707C255.712 473.29 256.323 474.567 256.739 475.538C257.128 476.51 257.572 477.564 257.711 477.87C258.294 479.063 259.349 483.698 259.654 486.279C260.154 490.498 260.015 490.22 261.542 490.22C268.038 490.22 278.67 485.779 283.64 481.006L285 479.701L284.806 477.425C284.5 473.651 282.724 466.657 281.835 465.658C281.696 465.519 281.585 465.214 281.585 464.964C281.585 464.714 280.975 463.465 280.197 462.188C279.448 460.912 278.809 459.829 278.809 459.774C278.809 459.691 278.643 459.469 278.476 459.274C278.282 459.052 277.505 458.081 276.755 457.082C276.005 456.055 275.2 455.25 274.923 455.25C274.673 455.25 274.09 455.527 273.646 455.861Z" fill="#E0712D"/>
<path d="M217.27 458.33C216.492 459.357 215.243 461.356 214.161 463.298C212.301 466.601 210.441 472.818 210.663 475.011C210.746 475.899 210.774 475.871 212.301 473.567C214.133 470.82 215.271 468.627 216.27 466.018C217.075 463.798 218.186 458.886 218.047 457.997C217.964 457.415 217.908 457.415 217.27 458.33Z" fill="#E0712D"/>
<path d="M221.883 458.357C222.41 461.494 222.66 462.548 223.299 464.547C224.465 468.21 227.796 474.233 229.323 475.51C229.767 475.843 229.795 475.815 229.656 475.204C229.573 474.843 229.378 473.678 229.212 472.623C228.795 470.07 227.824 467.156 226.463 464.436C225.214 461.938 222.327 457.469 221.966 457.469C221.827 457.469 221.8 457.886 221.883 458.357Z" fill="#E0712D"/>
<path d="M209.624 461.773C205.987 463.521 200.546 464.992 196.298 465.381C193.134 465.686 193.023 465.714 191.912 466.935C187.276 472.125 183.639 480.09 182.918 486.751C182.557 490.165 182.529 490.082 183.861 490.165C185.444 490.276 189.663 489.554 192.412 488.666C197.214 487.168 205.043 482.56 206.736 480.229C207.07 479.785 207.319 478.841 207.403 477.731C207.819 472.375 209.096 467.434 211.317 462.855C212.011 461.412 212.15 460.773 211.789 460.829C211.65 460.829 210.706 461.273 209.624 461.773Z" fill="#E0712D"/>
<path d="M227.775 460.911C227.775 460.966 228.275 462.132 228.914 463.492C229.524 464.824 230.163 466.184 230.274 466.489C231.273 468.765 232.189 473.095 232.661 477.73C232.883 479.978 232.967 480.172 234.771 481.699C240.018 486.139 248.374 489.636 254.87 490.136C257.035 490.302 257.146 490.275 257.341 489.692C257.674 488.609 256.675 483.031 255.509 479.562C254.676 477.119 252.871 473.428 251.567 471.485C249.707 468.738 247.486 466.045 246.847 465.823C246.514 465.685 245.209 465.518 243.96 465.407C241.517 465.241 237.519 464.436 235.41 463.742C232.911 462.881 229.58 461.549 229.025 461.188C228.525 460.828 227.775 460.661 227.775 460.911Z" fill="#E0712D"/>
<path d="M219.482 465.713C219.288 466.463 218.761 467.767 218.316 468.628C217.9 469.488 217.539 470.265 217.539 470.321C217.539 470.487 214.43 475.594 214.208 475.788C214.125 475.871 213.542 476.621 212.903 477.453C212.265 478.286 211.515 479.23 211.21 479.563C210.155 480.701 209.96 481.339 210.155 483.393C210.876 491.025 213.458 497.631 218.011 503.459C218.872 504.569 219.788 505.485 220.038 505.485C220.815 505.485 223.73 501.627 225.673 497.991C228.005 493.662 229.615 488.139 229.92 483.31L230.087 480.923L228.643 479.257C225.506 475.622 221.564 468.961 220.565 465.575C220.371 464.936 220.149 464.409 220.065 464.409C219.954 464.409 219.704 464.992 219.482 465.713Z" fill="#E0712D"/>
<path d="M232.621 483.782C232.537 483.893 232.399 484.725 232.315 485.641C232.065 487.778 230.622 493.329 229.928 494.856C229.622 495.522 229.373 496.105 229.373 496.188C229.373 496.632 227.624 499.879 226.319 501.85C224.348 504.847 224.098 505.208 223.265 506.124C222.21 507.317 222.099 507.845 222.738 508.649C223.404 509.51 227.901 512.479 230.622 513.867C234.814 516.004 241.199 517.697 245.141 517.697H246.945L248.278 516.254C249.027 515.449 249.638 514.7 249.638 514.589C249.638 514.506 249.805 514.228 249.999 514.034C250.554 513.451 251.97 511.286 253.053 509.343C255.024 505.735 256.773 500.101 257.245 495.633C257.494 493.274 257.272 493.052 254.219 492.719C250.998 492.358 249.138 491.969 246.584 491.137C244.586 490.498 239.089 488.056 238.811 487.695C238.728 487.584 238.173 487.279 237.562 486.946C236.951 486.64 235.619 485.752 234.592 484.975C233.565 484.226 232.676 483.671 232.621 483.782Z" fill="#E0712D"/>
<path d="M204.797 485.364C201.104 488.14 195.497 490.749 190.861 491.859C188.501 492.414 187.862 492.525 184.531 492.858C183.449 492.997 182.727 493.191 182.616 493.441C182.366 494.135 183.143 498.964 184.059 502.156C185.725 507.928 188.64 513.091 192.471 517.087C193.109 517.753 193.22 517.781 195.941 517.587C200.299 517.337 204.214 516.255 208.628 514.145C212.653 512.23 217.789 508.705 217.789 507.873C217.789 507.679 217.067 506.568 216.151 505.43C211.681 499.769 208.794 493.163 207.795 486.252C207.573 484.92 207.295 483.838 207.129 483.838C206.962 483.838 205.907 484.532 204.797 485.364Z" fill="#E0712D"/>
<path d="M153.452 549.606H162.159L169.545 567.618H169.886L177.273 549.606H185.98V578.697H179.134V560.828H178.892L171.903 578.513H167.528L160.54 560.729H160.298V578.697H153.452V549.606ZM200.565 579.109C198.282 579.109 196.313 578.659 194.656 577.76C193.008 576.851 191.739 575.558 190.849 573.882C189.968 572.196 189.528 570.193 189.528 567.873C189.528 565.62 189.973 563.65 190.863 561.964C191.753 560.269 193.008 558.953 194.627 558.015C196.246 557.068 198.155 556.595 200.352 556.595C201.905 556.595 203.325 556.836 204.613 557.319C205.901 557.802 207.013 558.517 207.951 559.464C208.888 560.411 209.618 561.581 210.138 562.973C210.659 564.355 210.92 565.942 210.92 567.731V569.464H191.957V565.43H204.457C204.447 564.692 204.272 564.033 203.931 563.456C203.59 562.878 203.121 562.428 202.525 562.106C201.938 561.775 201.261 561.609 200.494 561.609C199.717 561.609 199.021 561.784 198.406 562.135C197.79 562.476 197.302 562.944 196.942 563.541C196.583 564.128 196.393 564.796 196.374 565.544V569.649C196.374 570.539 196.549 571.32 196.9 571.993C197.25 572.656 197.747 573.172 198.391 573.541C199.035 573.91 199.802 574.095 200.692 574.095C201.308 574.095 201.867 574.01 202.369 573.839C202.871 573.669 203.301 573.418 203.661 573.086C204.021 572.755 204.291 572.348 204.471 571.865L210.849 572.05C210.584 573.479 210.001 574.725 209.102 575.785C208.211 576.836 207.042 577.656 205.593 578.243C204.144 578.82 202.468 579.109 200.565 579.109ZM222.436 579.01C220.826 579.01 219.363 578.593 218.047 577.76C216.731 576.926 215.679 575.676 214.893 574.01C214.107 572.343 213.714 570.274 213.714 567.802C213.714 565.236 214.122 563.124 214.936 561.467C215.75 559.81 216.816 558.584 218.132 557.788C219.458 556.993 220.883 556.595 222.408 556.595C223.554 556.595 224.534 556.794 225.348 557.192C226.162 557.58 226.835 558.082 227.365 558.697C227.895 559.313 228.298 559.952 228.572 560.615H228.714V549.606H235.661V578.697H228.786V575.16H228.572C228.279 575.833 227.862 576.462 227.322 577.05C226.783 577.637 226.106 578.11 225.291 578.47C224.486 578.83 223.535 579.01 222.436 579.01ZM224.851 573.598C225.694 573.598 226.413 573.361 227.01 572.888C227.607 572.405 228.066 571.728 228.388 570.856C228.71 569.985 228.871 568.962 228.871 567.788C228.871 566.595 228.71 565.568 228.388 564.706C228.075 563.844 227.616 563.181 227.01 562.717C226.413 562.253 225.694 562.021 224.851 562.021C223.989 562.021 223.26 562.258 222.663 562.731C222.067 563.205 221.612 563.872 221.3 564.734C220.997 565.596 220.845 566.614 220.845 567.788C220.845 568.962 221.001 569.985 221.314 570.856C221.626 571.728 222.076 572.405 222.663 572.888C223.26 573.361 223.989 573.598 224.851 573.598ZM254.94 578.697H247.383L257.198 549.606H266.559L276.374 578.697H268.817L261.985 556.936H261.758L254.94 578.697ZM253.931 567.248H269.727V572.589H253.931V567.248ZM286.538 549.606V578.697H279.506V549.606H286.538Z" fill="#E0712D"/>
</g>
<defs>
<filter id="filter0_f_6201_6295" x="91.8488" y="248.737" width="347.902" height="532.748" filterUnits="userSpaceOnUse" color-interpolation-filters="sRGB">
<feFlood flood-opacity="0" result="BackgroundImageFix"/>
<feBlend mode="normal" in="SourceGraphic" in2="BackgroundImageFix" result="shape"/>
<feGaussianBlur stdDeviation="25.35" result="effect1_foregroundBlur_6201_6295"/>
</filter>
<filter id="filter1_f_6201_6295" x="0.214062" y="248.494" width="347.746" height="532.269" filterUnits="userSpaceOnUse" color-interpolation-filters="sRGB">
<feFlood flood-opacity="0" result="BackgroundImageFix"/>
<feBlend mode="normal" in="SourceGraphic" in2="BackgroundImageFix" result="shape"/>
<feGaussianBlur stdDeviation="25.35" result="effect1_foregroundBlur_6201_6295"/>
</filter>
<filter id="filter2_f_6201_6295" x="-183" y="368" width="805" height="514" filterUnits="userSpaceOnUse" color-interpolation-filters="sRGB">
<feFlood flood-opacity="0" result="BackgroundImageFix"/>
<feBlend mode="normal" in="SourceGraphic" in2="BackgroundImageFix" result="shape"/>
<feGaussianBlur stdDeviation="17.5" result="effect1_foregroundBlur_6201_6295"/>
</filter>
<filter id="filter3_f_6201_6295" x="-183" y="73" width="805" height="514" filterUnits="userSpaceOnUse" color-interpolation-filters="sRGB">
<feFlood flood-opacity="0" result="BackgroundImageFix"/>
<feBlend mode="normal" in="SourceGraphic" in2="BackgroundImageFix" result="shape"/>
<feGaussianBlur stdDeviation="17.5" result="effect1_foregroundBlur_6201_6295"/>
</filter>
<linearGradient id="paint0_linear_6201_6295" x1="440.28" y1="114.975" x2="0" y2="114.975" gradientUnits="userSpaceOnUse">
<stop stop-color="white"/>
<stop offset="1" stop-color="#296B35"/>
</linearGradient>
<linearGradient id="paint1_linear_6201_6295" x1="0" y1="114.972" x2="439.725" y2="114.972" gradientUnits="userSpaceOnUse">
<stop stop-color="#D9D9D9"/>
<stop offset="1" stop-color="#296B35"/>
</linearGradient>
<linearGradient id="paint2_linear_6201_6295" x1="219.5" y1="685.703" x2="219.5" y2="961" gradientUnits="userSpaceOnUse">
<stop stop-color="white"/>
<stop offset="0.61714" stop-color="#E0712D"/>
<stop offset="1" stop-color="#E0712D"/>
</linearGradient>
<linearGradient id="paint3_linear_6201_6295" x1="924.5" y1="804.703" x2="924.5" y2="1083" gradientUnits="userSpaceOnUse">
<stop stop-color="white"/>
<stop offset="0.61714" stop-color="#E0712D"/>
<stop offset="1" stop-color="#E0712D"/>
</linearGradient>
<clipPath id="clip0_6201_6295">
<rect width="440" height="956" fill="white"/>
</clipPath>
</defs>
</svg>
