<svg width="32" height="32" viewBox="0 0 32 32" fill="none" xmlns="http://www.w3.org/2000/svg">
<path fill-rule="evenodd" clip-rule="evenodd" d="M5.66699 25.3334C5.66699 25.0682 5.77235 24.8138 5.95989 24.6263C6.14742 24.4388 6.40178 24.3334 6.66699 24.3334H25.3337C25.5989 24.3334 25.8532 24.4388 26.0408 24.6263C26.2283 24.8138 26.3337 25.0682 26.3337 25.3334C26.3337 25.5986 26.2283 25.853 26.0408 26.0405C25.8532 26.2281 25.5989 26.3334 25.3337 26.3334H6.66699C6.40178 26.3334 6.14742 26.2281 5.95989 26.0405C5.77235 25.853 5.66699 25.5986 5.66699 25.3334ZM9.66699 29.3334C9.66699 29.0682 9.77235 28.8138 9.95988 28.6263C10.1474 28.4388 10.4018 28.3334 10.667 28.3334H21.3337C21.5989 28.3334 21.8532 28.4388 22.0408 28.6263C22.2283 28.8138 22.3337 29.0682 22.3337 29.3334C22.3337 29.5986 22.2283 29.853 22.0408 30.0405C21.8532 30.2281 21.5989 30.3334 21.3337 30.3334H10.667C10.4018 30.3334 10.1474 30.2281 9.95988 30.0405C9.77235 29.853 9.66699 29.5986 9.66699 29.3334ZM16.0003 1.66675C16.2655 1.66675 16.5199 1.7721 16.7074 1.95964C16.895 2.14718 17.0003 2.40153 17.0003 2.66675V4.00008C17.0003 4.2653 16.895 4.51965 16.7074 4.70719C16.5199 4.89472 16.2655 5.00008 16.0003 5.00008C15.7351 5.00008 15.4808 4.89472 15.2932 4.70719C15.1057 4.51965 15.0003 4.2653 15.0003 4.00008V2.66675C15.0003 2.40153 15.1057 2.14718 15.2932 1.95964C15.4808 1.7721 15.7351 1.66675 16.0003 1.66675ZM5.86566 5.86541C6.05316 5.67815 6.30732 5.57296 6.57233 5.57296C6.83733 5.57296 7.09149 5.67815 7.27899 5.86541L7.80299 6.38808C7.98524 6.5766 8.08616 6.82915 8.084 7.09135C8.08185 7.35355 7.9768 7.60441 7.79148 7.78991C7.60615 7.97541 7.35539 8.08069 7.09319 8.08309C6.831 8.0855 6.57835 7.98482 6.38966 7.80275L5.86566 7.27875C5.67839 7.09125 5.5732 6.83708 5.5732 6.57208C5.5732 6.30708 5.67839 6.05292 5.86566 5.86541ZM26.135 5.86541C26.3223 6.05292 26.4274 6.30708 26.4274 6.57208C26.4274 6.83708 26.3223 7.09125 26.135 7.27875L25.611 7.80275C25.4214 7.97939 25.1707 8.07555 24.9116 8.07098C24.6526 8.06641 24.4054 7.96146 24.2222 7.77824C24.0389 7.59503 23.934 7.34785 23.9294 7.08878C23.9249 6.82971 24.021 6.57898 24.1977 6.38941L24.7217 5.86541C24.9092 5.67815 25.1633 5.57296 25.4283 5.57296C25.6933 5.57296 25.9475 5.67815 26.135 5.86541ZM1.66699 16.0001C1.66699 15.7349 1.77235 15.4805 1.95989 15.293C2.14742 15.1054 2.40178 15.0001 2.66699 15.0001H4.00033C4.26554 15.0001 4.5199 15.1054 4.70743 15.293C4.89497 15.4805 5.00033 15.7349 5.00033 16.0001C5.00033 16.2653 4.89497 16.5197 4.70743 16.7072C4.5199 16.8947 4.26554 17.0001 4.00033 17.0001H2.66699C2.40178 17.0001 2.14742 16.8947 1.95989 16.7072C1.77235 16.5197 1.66699 16.2653 1.66699 16.0001ZM27.0003 16.0001C27.0003 15.7349 27.1057 15.4805 27.2932 15.293C27.4808 15.1054 27.7351 15.0001 28.0003 15.0001H29.3337C29.5989 15.0001 29.8532 15.1054 30.0408 15.293C30.2283 15.4805 30.3337 15.7349 30.3337 16.0001C30.3337 16.2653 30.2283 16.5197 30.0408 16.7072C29.8532 16.8947 29.5989 17.0001 29.3337 17.0001H28.0003C27.7351 17.0001 27.4808 16.8947 27.2932 16.7072C27.1057 16.5197 27.0003 16.2653 27.0003 16.0001Z" fill="#E0712D"/>
<path d="M7.00033 15.9999C7.00033 17.5706 7.40299 19.0479 8.11099 20.3332H2.66699C2.40178 20.3332 2.14742 20.4386 1.95989 20.6261C1.77235 20.8137 1.66699 21.068 1.66699 21.3332C1.66699 21.5984 1.77235 21.8528 1.95989 22.0403C2.14742 22.2279 2.40178 22.3332 2.66699 22.3332H29.3337C29.5989 22.3332 29.8532 22.2279 30.0408 22.0403C30.2283 21.8528 30.3337 21.5984 30.3337 21.3332C30.3337 21.068 30.2283 20.8137 30.0408 20.6261C29.8532 20.4386 29.5989 20.3332 29.3337 20.3332H23.8897C24.6019 19.037 24.9837 17.5853 25.0014 16.1064C25.019 14.6275 24.6719 13.167 23.9908 11.8542C23.3097 10.5414 22.3155 9.41667 21.0963 8.57952C19.877 7.74237 18.4702 7.21861 17.0003 7.05456V13.5852L17.9603 12.6252C18.0526 12.5298 18.163 12.4536 18.285 12.4013C18.4071 12.3489 18.5383 12.3214 18.6711 12.3203C18.8038 12.3192 18.9355 12.3446 19.0584 12.3949C19.1813 12.4453 19.2929 12.5196 19.3867 12.6135C19.4806 12.7074 19.5548 12.8191 19.605 12.942C19.6552 13.065 19.6805 13.1967 19.6792 13.3294C19.678 13.4622 19.6504 13.5934 19.5979 13.7154C19.5454 13.8374 19.4692 13.9477 19.3737 14.0399L16.707 16.7066C16.5195 16.8938 16.2653 16.999 16.0003 16.999C15.7353 16.999 15.4812 16.8938 15.2937 16.7066L12.627 14.0399C12.5287 13.9483 12.4499 13.8379 12.3953 13.7153C12.3406 13.5926 12.3112 13.4602 12.3089 13.3259C12.3065 13.1916 12.3312 13.0583 12.3815 12.9338C12.4318 12.8092 12.5066 12.6961 12.6016 12.6012C12.6966 12.5062 12.8097 12.4314 12.9342 12.3811C13.0587 12.3308 13.1921 12.3061 13.3264 12.3084C13.4606 12.3108 13.593 12.3402 13.7157 12.3948C13.8384 12.4495 13.9488 12.5283 14.0403 12.6266L15.0003 13.5866V7.05322C12.8001 7.29922 10.7677 8.3476 9.29177 9.99789C7.81588 11.6482 7.00006 13.7846 7.00033 15.9986" fill="#E0712D"/>
</svg>
